<?xml version="1.0" encoding="UTF-8" standalone="no"?>
<!-- Created with Inkscape (http://www.inkscape.org/) -->

<svg
   xmlns:dc="http://purl.org/dc/elements/1.1/"
   xmlns:cc="http://creativecommons.org/ns#"
   xmlns:rdf="http://www.w3.org/1999/02/22-rdf-syntax-ns#"
   xmlns:svg="http://www.w3.org/2000/svg"
   xmlns="http://www.w3.org/2000/svg"
   xmlns:sodipodi="http://sodipodi.sourceforge.net/DTD/sodipodi-0.dtd"
   xmlns:inkscape="http://www.inkscape.org/namespaces/inkscape"
   id="svg2"
   version="1.1"
   inkscape:version="0.48.4 r9939"
   width="300.90875"
   height="77.063751"
   xml:space="preserve"
   sodipodi:docname="hlt-logo-tm.svg"><metadata
     id="metadata8"><rdf:RDF><cc:Work
         rdf:about=""><dc:format>image/svg+xml</dc:format><dc:type
           rdf:resource="http://purl.org/dc/dcmitype/StillImage" /><dc:title></dc:title></cc:Work></rdf:RDF></metadata><defs
     id="defs6"><clipPath
       clipPathUnits="userSpaceOnUse"
       id="clipPath20"><path
         d="M 0,612 792,612 792,0 0,0 0,612 z"
         id="path22"
         inkscape:connector-curvature="0" /></clipPath></defs><sodipodi:namedview
     pagecolor="#ffffff"
     bordercolor="#666666"
     borderopacity="1"
     objecttolerance="10"
     gridtolerance="10"
     guidetolerance="10"
     inkscape:pageopacity="0"
     inkscape:pageshadow="2"
     inkscape:window-width="640"
     inkscape:window-height="480"
     id="namedview4"
     showgrid="false"
     inkscape:zoom="1.2339869"
     inkscape:cx="148.12458"
     inkscape:cy="13.886406"
     inkscape:window-x="49"
     inkscape:window-y="24"
     inkscape:window-maximized="0"
     inkscape:current-layer="g10"
     fit-margin-top="2"
     fit-margin-left="2"
     fit-margin-right="2"
     fit-margin-bottom="2" /><g
     id="g10"
     inkscape:groupmode="layer"
     inkscape:label="hlt-logo-tm"
     transform="matrix(1.25,0,0,-1.25,-344.58712,420.52688)"><g
       id="g12"
       transform="translate(311.2001,334.8215)"><path
         d="m 0,0 -10.875,-29.879 8.262,0 -10.399,-28.572 14.62,30.987 -7.939,0 L 3.665,0 0,0 z"
         style="fill:#00a0e1;fill-opacity:1;fill-rule:evenodd;stroke:none"
         id="path14"
         inkscape:connector-curvature="0" /></g><g
       id="g16"><g
         id="g18"
         clip-path="url(#clipPath20)"><g
           id="g24"
           transform="translate(361.2767,307.1732)"><path
             d="M 0,0 1.499,0 C 2.735,0 3.722,0.348 4.447,1.037 5.179,1.733 5.541,2.692 5.541,3.914 5.541,5.968 4.404,6.99 2.124,6.99 L 0,6.99 0,0 z m -31.365,-16.794 0,30.434 8.219,0 0,-23.785 11.715,0 0,-6.649 -19.934,0 z m -17.847,30.433 13.962,0 0,-6.606 -9.811,0 0,-4.689 -9.03,-19.138 18.841,0 0,6.692 -9.811,0 0,5.711 6.919,0 0,6.735 -6.919,0 -8.262,0 4.111,11.295 z m -14.824,-30.433 0,12.403 6.562,18.03 -6.562,0 0,-11.295 -11.709,0 0,11.295 -8.262,0 0,-30.433 8.262,0 0,12.403 11.709,0 8.262,0 -4.515,-12.403 -3.747,0 z M 24.661,9.623 c 0.795,0 1.44,-0.645 1.44,-1.441 0,-0.795 -0.645,-1.439 -1.44,-1.439 -0.795,0 -1.44,0.644 -1.44,1.439 0,0.796 0.645,1.441 1.44,1.441 m 77.617,0 c 0.795,0 1.44,-0.645 1.44,-1.441 0,-0.795 -0.645,-1.439 -1.44,-1.439 -0.795,0 -1.44,0.644 -1.44,1.439 0,0.796 0.645,1.441 1.44,1.441 m -85.051,4.016 1.935,0 0,-30.433 -1.935,0 0,30.433 z m 46.055,-30.433 0,13.773 c 0,2.135 -0.454,3.689 -1.355,4.663 -0.894,0.968 -2.288,1.455 -4.183,1.455 -2.542,0 -4.403,-0.64 -5.578,-1.928 -1.181,-1.281 -1.775,-3.363 -1.775,-6.238 l 0,-11.725 -1.934,0 0,30.433 1.934,0 0,-9.695 -0.093,-2.722 0.133,0 c 0.794,1.281 1.802,2.202 3.016,2.776 1.208,0.574 2.716,0.86 4.517,0.86 4.817,0 7.233,-2.588 7.233,-7.759 l 0,-13.893 -1.915,0 z m 38.008,21.252 1.935,0 0,-21.252 -1.935,0 0,21.252 z M 41.946,2.631 c 3.918,-4.567 0.663,-11.671 -5.368,-11.671 -0.71,0 -1.397,0.105 -2.044,0.3 l -1.791,-1.44 c -0.869,-1.178 -1.156,-3.431 0.166,-4.238 2.55,-1.556 13.438,2.034 13.438,-5.991 0,-8.112 -12.929,-8.113 -16.707,-5.465 -3.396,2.382 -3.249,8.514 2.849,9.902 -4.221,1.803 -2.249,6.28 0.793,7.746 -6.494,3.429 -4.044,13.326 3.296,13.326 1.046,0 2.039,-0.227 2.932,-0.635 l 5.734,0 0,-0.634 -3.298,-1.2 z M 36.578,3.2 c -2.855,0 -5.17,-2.314 -5.17,-5.17 0,-2.855 2.315,-5.17 5.17,-5.17 2.855,0 5.17,2.315 5.17,5.17 0,2.855 -2.314,5.17 -5.17,5.17 M 29.5,-21.396 c 0,-2.916 2.168,-4.377 6.505,-4.377 10.284,0 9.072,6.786 7.059,8.106 -1.679,1.102 -5.395,0.861 -7.719,0.861 -3.894,0 -5.845,-1.528 -5.845,-4.59 m -5.826,25.854 1.935,0 0,-21.252 -1.935,0 0,21.252 z m 98.888,-21.252 0,13.773 c 0,2.135 -0.453,3.689 -1.354,4.663 -0.894,0.968 -2.288,1.455 -4.183,1.455 -2.542,0 -4.404,-0.64 -5.578,-1.928 -1.005,-1.09 -1.585,-2.76 -1.735,-5.004 l 0,-6.807 -0.04,0 0,-6.152 -1.935,0 0,17.677 0,0.001 0,3.574 0,0 0.634,0 1.246,-3.424 0.255,0.502 c 1.382,2.215 3.837,3.322 7.373,3.322 4.817,0 7.232,-2.588 7.232,-7.759 l 0,-13.893 -1.915,0 z m -27.458,0 0,13.773 c 0,2.135 -0.454,3.689 -1.355,4.663 -0.894,0.968 -2.288,1.455 -4.183,1.455 -2.542,0 -4.403,-0.64 -5.578,-1.928 -1.004,-1.09 -1.584,-2.76 -1.735,-5.004 l 0,-6.807 -0.039,0 0,-6.152 -1.935,0 0,17.677 -10e-4,0.001 0,3.574 10e-4,0 0.633,0 1.246,-3.424 0.256,0.502 c 1.381,2.215 3.836,3.322 7.372,3.322 4.817,0 7.233,-2.588 7.233,-7.759 l 0,-13.893 -1.915,0 z m 45.482,19.425 c 3.918,-4.567 0.664,-11.671 -5.368,-11.671 -0.71,0 -1.397,0.105 -2.044,0.3 l -1.791,-1.44 c -0.869,-1.178 -1.156,-3.431 0.166,-4.238 2.55,-1.556 13.438,2.034 13.438,-5.991 0,-8.112 -12.929,-8.113 -16.707,-5.465 -3.396,2.382 -3.249,8.514 2.849,9.902 -4.221,1.803 -2.249,6.28 0.793,7.746 -6.494,3.429 -4.044,13.326 3.296,13.326 1.046,0 2.039,-0.227 2.932,-0.635 l 5.734,0 0,-0.634 -3.298,-1.2 z M 135.218,3.2 c -2.855,0 -5.17,-2.314 -5.17,-5.17 0,-2.855 2.315,-5.17 5.17,-5.17 2.855,0 5.17,2.315 5.17,5.17 0,2.855 -2.314,5.17 -5.17,5.17 m -7.078,-24.596 c 0,-2.916 2.168,-4.377 6.505,-4.377 10.284,0 9.072,6.786 7.059,8.106 -1.679,1.102 -5.395,0.861 -7.719,0.861 -3.894,0 -5.845,-1.528 -5.845,-4.59 m 22.822,21.237 -1.243,3.578 -0.023,0 c 0.033,-0.532 0.05,-1.03 0.05,-1.495 l 0,-2.083 -0.635,0 0,4.284 0.987,0 1.19,-3.408 0.017,0 1.225,3.408 0.99,0 0,-4.284 -0.673,0 0,2.119 c 0,0.213 0.004,0.49 0.015,0.833 0.01,0.341 0.021,0.548 0.029,0.62 l -0.025,0 -1.285,-3.572 -0.619,0 z m -3.589,0 -0.7,0 0,3.685 -1.26,0 0,0.599 3.22,0 0,-0.599 -1.26,0 0,-3.685 z M 75.08,-15.518 c 1.227,0 2.295,0.107 3.209,0.314 l 0,-1.535 c -2.198,-0.717 -5.748,-0.807 -7.399,1.048 -1.737,1.95 -1.341,5.962 -1.341,9.017 l -0.001,9.451 -2.427,0 0,1.681 2.427,0 0,4.98 0.634,0 1.341,-3.684 0,-1.296 0.254,0 5.985,0 0,-1.681 -5.985,0 -0.254,0 0,-13.491 c 0,-2.739 0.753,-4.804 3.557,-4.804 M 13.867,3.964 c 0,-3.403 -1.002,-6.024 -3.005,-7.878 -2.01,-1.854 -4.859,-2.778 -8.546,-2.778 l -2.316,0 0,-10.102 -8.219,0 0,30.434 10.535,0 c 3.843,0 6.727,-0.838 8.66,-2.515 1.925,-1.684 2.891,-4.071 2.891,-7.161"
             style="fill:#3a3d3f;fill-opacity:1;fill-rule:evenodd;stroke:none"
             id="path26"
             inkscape:connector-curvature="0" /></g></g></g></g></svg>