<?xml version="1.0" encoding="UTF-8" standalone="no"?>
<!-- Created with Inkscape (http://www.inkscape.org/) -->

<svg
   xmlns:dc="http://purl.org/dc/elements/1.1/"
   xmlns:cc="http://creativecommons.org/ns#"
   xmlns:rdf="http://www.w3.org/1999/02/22-rdf-syntax-ns#"
   xmlns:svg="http://www.w3.org/2000/svg"
   xmlns="http://www.w3.org/2000/svg"
   version="1.1"
   width="295.70001"
   height="169.91251"
   id="svg2"
   xml:space="preserve"><metadata
     id="metadata8"><rdf:RDF><cc:Work
         rdf:about=""><dc:format>image/svg+xml</dc:format><dc:type
           rdf:resource="http://purl.org/dc/dcmitype/StillImage" /><dc:title></dc:title></cc:Work></rdf:RDF></metadata><defs
     id="defs6"><clipPath
       id="clipPath18"><path
         d="m 0,0 2365.63,0 0,1359 L 0,1359 0,0 z"
         id="path20" /></clipPath><clipPath
       id="clipPath38"><path
         d="m 1057.96,0 0,659.715 865.77,0 0,-659.715 -865.77,0 z"
         id="path40" /></clipPath><clipPath
       id="clipPath58"><path
         d="m 1493.87,195.551 c 0,-10.352 -8.39,-18.75 -18.74,-18.75 -10.36,0 -18.75,8.39 -18.75,18.75 0,10.347 8.39,18.738 18.75,18.738 10.35,0 18.74,-8.391 18.74,-18.738 z"
         id="path60" /></clipPath><clipPath
       id="clipPath68"><path
         d="m 1521.74,195.148 c 0.21,8.372 -3.36,16.582 -15.6,18.481 -7.87,1.223 -1.52,-3.828 -1.52,-3.828 0,0 10.55,-5.403 10.23,-14.61 -0.31,-9.203 -10.28,-14.64 -10.28,-14.64 0,0 -6.35,-5.063 1.53,-3.84 11.86,1.848 15.43,10.07 15.64,18.437 z"
         id="path70" /></clipPath><clipPath
       id="clipPath78"><path
         d="m 1551.38,195.148 c 0.21,8.372 -3.37,16.582 -15.6,18.481 -7.88,1.223 -1.53,-3.828 -1.53,-3.828 0,0 10.55,-5.403 10.24,-14.61 -0.32,-9.203 -10.28,-14.64 -10.28,-14.64 0,0 -6.35,-5.063 1.53,-3.84 11.85,1.848 15.42,10.07 15.64,18.437 l 0,0 z"
         id="path80" /></clipPath><clipPath
       id="clipPath88"><path
         d="m 1580.29,195.148 c 0.22,8.372 -3.36,16.582 -15.59,18.481 -7.88,1.223 -1.53,-3.828 -1.53,-3.828 0,0 10.55,-5.403 10.24,-14.61 -0.32,-9.203 -10.28,-14.64 -10.28,-14.64 0,0 -6.35,-5.063 1.52,-3.84 11.86,1.848 15.43,10.07 15.64,18.437 z"
         id="path90" /></clipPath><clipPath
       id="clipPath98"><path
         d="m 1604.76,195.148 c 0.22,8.372 -3.36,16.582 -15.59,18.481 -7.88,1.223 -1.53,-3.828 -1.53,-3.828 0,0 10.55,-5.403 10.24,-14.61 -0.32,-9.203 -10.28,-14.64 -10.28,-14.64 0,0 -6.35,-5.063 1.52,-3.84 11.86,1.848 15.43,10.07 15.64,18.437 l 0,0 z"
         id="path100" /></clipPath><clipPath
       id="clipPath108"><path
         d="m 1632.83,195.148 c 0.22,8.372 -3.36,16.582 -15.59,18.481 -7.88,1.223 -1.53,-3.828 -1.53,-3.828 0,0 10.55,-5.403 10.24,-14.61 -0.32,-9.203 -10.28,-14.64 -10.28,-14.64 0,0 -6.35,-5.063 1.52,-3.84 11.86,1.848 15.43,10.07 15.64,18.437 l 0,0 z"
         id="path110" /></clipPath></defs><g
     transform="matrix(1.25,0,0,-1.25,0,169.9125)"
     id="g10"><g
       transform="scale(0.1,0.1)"
       id="g12"><g
         id="g14"><g
           clip-path="url(#clipPath18)"
           id="g16"><path
             d="m 1123.37,817.215 c 17.11,0 31.77,2.597 44.03,7.801 12.24,5.195 22.39,11.984 30.44,20.375 8.05,8.382 13.91,17.941 17.6,28.675 3.7,10.731 5.54,21.805 5.54,33.211 0,12.407 -2.26,23.149 -6.79,32.203 -4.54,9.055 -10.66,16.352 -18.36,21.887 -7.73,5.535 -16.79,9.633 -27.18,12.321 -10.39,2.683 -21.46,4.027 -33.2,4.027 -18.79,0 -34.47,-2.938 -47.04,-8.801 -12.59,-5.871 -22.65,-13.082 -30.2,-21.641 -7.54,-8.55 -13,-17.695 -16.35,-27.418 -3.36,-9.73 -5.03,-18.449 -5.03,-26.16 0,-23.148 7.04,-41.687 21.13,-55.601 14.09,-13.918 35.89,-20.879 65.41,-20.879"
             id="path22"
             style="fill:#b1b1b0;fill-opacity:1;fill-rule:nonzero;stroke:none" /><path
             d="m 1990.28,532.434 c 0.68,10.394 2.1,21.136 4.29,32.203 2.16,11.066 5.35,22.054 9.55,32.957 4.19,10.894 9.73,20.629 16.61,29.183 6.86,8.551 15.42,15.512 25.66,20.879 10.23,5.364 22.55,8.051 36.98,8.051 8.05,0 14.84,-4.863 20.37,-14.59 5.54,-9.734 8.3,-22.14 8.3,-37.234 0,-10.742 -4.19,-21.809 -12.57,-33.207 -8.39,-11.406 -18.7,-21.973 -30.94,-31.696 -12.26,-9.738 -25.5,-17.695 -39.75,-23.898 -14.27,-6.215 -27.43,-9.312 -39.5,-9.312 0,7.375 0.33,16.265 1,26.664 z M 279.902,247.488 c -41.535,0 -60.132,21.403 -60.132,42.614 0,27.648 27.574,57.039 78.679,57.039 38.231,0 76.25,-6.532 115.645,-19.903 -37.25,-53.617 -81.317,-79.75 -134.192,-79.75 z m 396.235,541.446 c 46.258,432.456 108.277,482.466 150.906,482.466 27.336,0 45.703,-46.52 45.703,-115.77 0,-116.67 -55.707,-322.474 -206.281,-442.872 3.601,23.738 7.047,49.332 9.672,76.176 z M 2300.72,498.227 c -13.08,-12.758 -29.01,-26.25 -47.79,-40.508 -18.79,-14.258 -38.75,-27.422 -59.88,-39.496 -21.13,-12.075 -42.85,-22.137 -65.16,-30.192 -22.3,-8.047 -43.51,-12.074 -63.65,-12.074 -6.37,0 -12.32,0.672 -17.85,2.016 -5.54,1.336 -10.82,3.683 -15.85,7.043 -5.03,3.347 -9.99,8.054 -14.84,14.089 -4.87,6.04 -9.82,13.583 -14.85,22.641 29.18,8.047 56.27,19.281 81.25,33.711 24.99,14.418 46.55,30.855 64.66,49.309 18.12,18.441 32.28,38.062 42.52,58.867 10.22,20.789 15.34,41.59 15.34,62.387 0,19.121 -3.35,36.39 -10.06,51.824 -6.71,15.422 -16.02,28.59 -27.93,39.5 -11.91,10.894 -25.91,19.371 -42.01,25.406 -16.1,6.039 -33.54,9.059 -52.32,9.059 -23.15,0 -44.2,-4.114 -63.15,-12.329 -18.95,-8.222 -36.06,-19.296 -51.31,-33.21 -15.27,-13.922 -28.61,-30.02 -40.01,-48.301 -11.4,-18.285 -20.87,-37.485 -28.42,-57.606 -7.56,-20.129 -13.17,-40.679 -16.86,-61.636 -3.69,-20.969 -5.54,-40.84 -5.54,-59.625 0,-12.676 0.93,-25.051 2.56,-37.2 -0.18,-0.172 -0.37,-0.359 -0.55,-0.531 -7.04,-6.719 -14.42,-13.168 -22.13,-19.371 -7.72,-6.215 -15.6,-11.66 -23.65,-16.355 -8.05,-4.704 -15.94,-8.551 -23.64,-11.571 -7.73,-3.023 -15.11,-4.535 -22.15,-4.535 -6.71,0 -12.41,5.703 -17.11,17.113 -4.69,11.399 -7.04,26.16 -7.04,44.278 0,23.14 1.17,45.027 3.53,65.66 2.33,20.625 5.03,41.004 8.05,61.129 3.02,20.129 5.69,40.582 8.05,61.386 2.34,20.793 3.51,42.762 3.51,65.911 0,15.089 -5.45,26.746 -16.34,34.964 -10.91,8.215 -24.25,12.329 -40,12.329 -14.09,0 -26.01,-4.614 -35.73,-13.836 -9.73,-9.227 -19.46,-20.551 -29.17,-33.961 -10.08,-13.762 -20.89,-29.688 -32.46,-47.797 -11.58,-18.113 -22.48,-35.395 -32.71,-51.824 -10.24,-16.442 -18.87,-30.442 -25.91,-42.016 -7.04,-11.57 -10.9,-17.859 -11.58,-18.863 l -5.53,6.035 c 0,0.672 0.17,2.012 0.5,4.027 0.33,2.012 1.34,6.871 3.02,14.586 2.34,11.07 4.87,21.891 7.55,32.453 2.69,10.567 5.28,21.383 7.8,32.453 2.51,11.075 4.61,22.473 6.29,34.215 1.68,11.735 2.52,24.153 2.52,37.235 0,15.089 -5.03,26.746 -15.09,34.964 -10.08,8.215 -22.15,12.329 -36.24,12.329 -15.09,0 -28.09,-4.528 -38.99,-13.582 -10.9,-9.063 -21.21,-20.465 -30.94,-34.215 -10.06,-13.762 -20.63,-29.606 -31.7,-47.551 -11.07,-17.945 -21.38,-35.137 -30.94,-51.566 -9.57,-16.446 -17.62,-30.532 -24.15,-42.266 -6.55,-11.742 -10.16,-18.113 -10.82,-19.117 l -5.54,6.035 c 3.35,21.129 6.55,41.586 9.57,61.383 1.33,8.379 2.59,17.023 3.77,25.91 1.17,8.887 2.26,17.527 3.27,25.914 1,8.379 1.76,16.262 2.26,23.648 0.51,7.371 0.76,13.914 0.76,19.621 0,10.395 -0.33,18.614 -1.01,24.653 -0.67,6.043 -2.77,10.644 -6.28,13.836 -3.53,3.183 -8.89,5.195 -16.1,6.039 -7.22,0.832 -17.2,1.258 -29.94,1.258 -8.39,0 -15.27,-0.59 -20.63,-1.762 -5.38,-1.18 -9.99,-3.524 -13.84,-7.043 -3.86,-3.524 -7.29,-8.477 -10.31,-14.844 -3.02,-6.375 -6.21,-14.926 -9.56,-25.66 -3.37,-10.398 -7.05,-23.82 -11.07,-40.25 -4.03,-16.438 -7.98,-34.555 -11.83,-54.34 -3.86,-19.797 -7.55,-40.5 -11.07,-62.137 -3.52,-21.632 -6.62,-42.851 -9.3,-63.652 -2.02,-15.543 -3.65,-30.332 -5.09,-44.75 -11.4,-9.844 -22.84,-19.641 -34.66,-28.957 -15.09,-11.91 -30.02,-22.059 -44.78,-30.441 -14.76,-8.387 -28.17,-12.575 -40.25,-12.575 -10.4,0 -17.28,4.438 -20.63,13.332 -3.36,8.883 -5.03,20.883 -5.03,35.973 0,15.426 1.67,32.785 5.03,52.078 3.35,19.285 7.54,39.071 12.57,59.371 5.05,20.289 10.4,40.578 16.11,60.879 5.7,20.289 11.07,39.246 16.1,56.852 5.03,17.613 9.22,33.375 12.57,47.297 3.35,13.914 5.03,24.566 5.03,31.949 0,8.719 -2.5,15.68 -7.54,20.879 -5.03,5.199 -14.59,7.801 -28.68,7.801 -7.72,0 -16.34,-0.926 -25.91,-2.77 -9.55,-1.844 -18.78,-4.699 -27.67,-8.551 -8.89,-3.859 -16.86,-8.89 -23.9,-15.093 -7.05,-6.215 -11.75,-13.672 -14.09,-22.391 -6.04,-25.16 -12.998,-52.66 -20.88,-82.516 -7.883,-29.859 -15.34,-59.797 -22.383,-89.808 -7.043,-30.028 -13.012,-59.043 -17.864,-87.043 -4.121,-23.731 -6.394,-44.836 -7.023,-63.625 l -3.949,-17.344 c -6.906,-30.387 -36.863,-87.859 -100.77,-87.859 -79.457,0 -147.375,33.281 -219.285,68.519 -15.34,7.524 -31.066,15.223 -47.226,22.777 30.691,60.145 55.593,132.864 74.16,216.571 232.293,103.609 353.761,352.172 353.761,546.694 0,141.51 -64.613,229.41 -168.621,229.41 -165.66,0 -244.004,-153.52 -289.05,-566.335 C 532.98,740.406 526.211,685.23 517.5,635.359 482.051,626.172 444.125,621.52 404.582,621.52 c -210.937,0 -285.785,112.324 -285.785,208.507 0,86.09 61.519,177.593 175.535,177.593 27.094,0 49.629,-6.03 70.91,-18.987 l 17.047,-10.375 56.422,115.712 -14.856,8.44 c -42.199,23.95 -78.226,33.28 -128.492,33.28 C 110.48,1135.69 0,985.516 0,840.332 0,698.852 105.961,533.641 404.582,533.641 c 31.371,0 62.453,2.32 92.746,6.91 -12.031,-51.535 -25.254,-94.781 -40.117,-131.176 -53.895,16.547 -109.043,24.613 -168.039,24.613 -118.817,0 -180.981,-71.347 -180.981,-141.828 0,-62.851 49.539,-130.488 158.313,-130.488 99.723,0 183.172,40.648 248.277,120.887 18.266,-9.43 36.496,-19.379 54.235,-29.059 82.668,-45.148 168.152,-91.828 268.324,-91.828 82.965,0 150.687,39.359 190.72,107.808 1.76,-0.05 3.42,-0.191 5.24,-0.191 19.46,0 40.01,3.52 61.64,10.57 21.64,7.039 42.85,15.852 63.65,26.411 19.03,9.671 36.72,20.289 53.37,31.652 0.09,-0.813 0.12,-1.66 0.22,-2.461 1.5,-12.582 4.52,-23.832 9.05,-33.723 4.52,-9.886 10.99,-17.769 19.37,-23.636 8.38,-5.883 19.45,-8.813 33.21,-8.813 10.73,0 20.54,2.43 29.43,7.301 8.89,4.859 16.69,14.16 23.4,27.922 23.14,46.617 42.01,85.449 56.61,116.48 14.58,31.02 26.57,56.262 35.97,75.723 9.39,19.449 16.68,34.211 21.89,44.277 5.19,10.063 9.8,17.61 13.82,22.641 l 7.56,0 c -5.38,-30.867 -9.9,-59.707 -13.59,-86.543 -1.68,-11.406 -3.35,-22.895 -5.03,-34.465 -1.69,-11.57 -3.19,-22.563 -4.53,-32.953 -1.35,-10.399 -2.35,-19.625 -3.01,-27.676 -0.68,-8.051 -1.01,-14.258 -1.01,-18.613 0,-10.403 0.58,-21.133 1.76,-32.203 1.17,-11.071 3.52,-21.219 7.05,-30.442 3.51,-9.226 8.46,-16.769 14.84,-22.636 6.36,-5.883 14.91,-8.813 25.65,-8.813 14.09,0 26.49,2.43 37.24,7.301 10.73,4.859 20.46,14.34 29.18,28.43 l 102.14,260.121 7.54,0 c -2.68,-24.149 -4.78,-48.047 -6.28,-71.7 -1.52,-23.644 -2.26,-46.035 -2.26,-67.168 0,-22.472 1.07,-43.273 3.26,-62.39 2.18,-19.113 5.79,-35.723 10.82,-49.813 5.03,-14.082 11.65,-25.07 19.88,-32.949 8.21,-7.891 18.36,-11.832 30.43,-11.832 24.48,0 46.46,3.281 65.91,9.82 19.45,6.539 37.31,14.922 53.59,25.153 16.26,10.226 31.7,21.636 46.29,34.218 5.82,5.008 11.71,9.661 17.56,14.54 4.41,-7.161 9.09,-14.102 14.39,-20.579 15.77,-19.3 35.48,-34.64 59.12,-46.043 23.65,-11.41 51.24,-17.109 82.76,-17.109 20.14,0 40.01,2.27 59.63,6.801 19.62,4.531 38.57,10.558 56.85,18.109 18.28,7.539 35.72,16.18 52.33,25.91 16.61,9.719 32.12,19.621 46.55,29.692 33.2,23.469 64.56,50.476 94.08,81 l -64.91,67.426"
             id="path24"
             style="fill:#b1b1b0;fill-opacity:1;fill-rule:nonzero;stroke:none" /><g
             transform="scale(10,10)"
             id="g26"><text
               transform="matrix(1,0,0,-1,107.95,4.61016)"
               id="text28"><tspan
                 x="0 12.443793"
                 y="0"
                 id="tspan30"
                 style="font-size:19.59679985px;font-variant:normal;font-weight:900;writing-mode:lr-tb;fill:#b1b1b0;fill-opacity:1;fill-rule:nonzero;stroke:none;font-family:Lato;-inkscape-font-specification:Lato-Black">by</tspan></text>
</g><g
             transform="scale(10,10)"
             id="g32" /></g></g><g
         id="g34"><g
           clip-path="url(#clipPath38)"
           id="g36"><path
             d="m 1372.01,153.551 13.77,-47.36 c 2.5,-8.7613 4.17,-16.691 5.84,-24.8199 l 0.62,0 c 1.67,8.3398 3.34,16.0586 5.64,24.8199 l 13.14,47.36 33.38,0 -37.97,-102.0119 -31.71,0 -37.13,102.0119 34.42,0"
             id="path42"
             style="fill:#5d5c5f;fill-opacity:1;fill-rule:nonzero;stroke:none" /><path
             d="m 1459,51.5391 31.7109,0 0,102.012 -31.7109,0 0,-102.012 z"
             id="path44"
             style="fill:#5d5c5f;fill-opacity:1;fill-rule:nonzero;stroke:none" /><path
             d="m 1516.16,119.328 c 0,13.352 -0.42,24.621 -0.84,34.223 l 27.54,0 1.46,-14.192 0.41,0 c 7.51,10.641 19.2,16.481 34.01,16.481 22.32,0 42.34,-19.399 42.34,-51.949 0,-37.1293 -23.57,-54.6527 -46.31,-54.6527 -12.3,0 -21.9,5.0117 -26.49,11.6836 l -0.42,0 0,-50.6914 -31.7,0 0,109.0975 m 31.7,-23.9882 c 0,-2.5 0.21,-4.5898 0.63,-6.6679 2.09,-8.5625 9.39,-15.0235 18.57,-15.0235 13.76,0 21.9,11.4727 21.9,28.7926 0,16.27 -7.3,28.571 -21.49,28.571 -8.97,0 -16.89,-6.672 -18.98,-16.063 -0.42,-1.668 -0.63,-3.75 -0.63,-5.629 l 0,-13.9802"
             id="path46"
             style="fill:#5d5c5f;fill-opacity:1;fill-rule:nonzero;stroke:none" /><path
             d="m 1725.8,76.1484 c 0,-9.5976 0.42,-18.9765 1.67,-24.6093 l -28.58,0 -1.87,10.2226 -0.63,0 c -6.67,-8.1406 -17.11,-12.5234 -29.21,-12.5234 -20.65,0 -32.95,15.0234 -32.95,31.2929 0,26.4998 23.78,39.0078 59.87,39.0078 l 0,1.25 c 0,5.641 -2.92,13.352 -18.57,13.352 -10.43,0 -21.49,-3.539 -28.16,-7.711 l -5.84,20.441 c 7.09,3.957 21.07,9.18 39.63,9.18 34,0 44.64,-20.031 44.64,-44.231 l 0,-35.6716 m -30.66,23.5704 c -16.69,0 -29.62,-3.9571 -29.62,-16.0586 0,-8.1407 5.42,-12.1016 12.51,-12.1016 7.72,0 14.4,5.2226 16.48,11.6797 0.42,1.6719 0.63,3.5508 0.63,5.4336 l 0,11.0469"
             id="path48"
             style="fill:#5d5c5f;fill-opacity:1;fill-rule:nonzero;stroke:none" /><path
             d="m 1835.95,76.1484 c 0,-9.5976 0.42,-18.9765 1.67,-24.6093 l -28.58,0 -1.88,10.2226 -0.63,0 c -6.67,-8.1406 -17.1,-12.5234 -29.2,-12.5234 -20.65,0 -32.96,15.0234 -32.96,31.2929 0,26.4998 23.78,39.0078 59.87,39.0078 l 0,1.25 c 0,5.641 -2.92,13.352 -18.57,13.352 -10.43,0 -21.48,-3.539 -28.16,-7.711 l -5.84,20.441 c 7.09,3.957 21.07,9.18 39.64,9.18 34,0 44.64,-20.031 44.64,-44.231 l 0,-35.6716 m -30.67,23.5704 c -16.68,0 -29.62,-3.9571 -29.62,-16.0586 0,-8.1407 5.43,-12.1016 12.52,-12.1016 7.72,0 14.39,5.2226 16.48,11.6797 0.41,1.6719 0.62,3.5508 0.62,5.4336 l 0,11.0469"
             id="path50"
             style="fill:#5d5c5f;fill-opacity:1;fill-rule:nonzero;stroke:none" /><path
             d="m 1861.19,119.961 c 0,15.019 -0.21,24.82 -0.83,33.59 l 27.12,0 1.25,-18.781 0.83,0 c 5.22,15.019 17.52,21.281 27.54,21.281 2.92,0 4.38,-0.211 6.67,-0.629 l 0,-29.832 c -2.5,0.422 -5,0.84 -8.55,0.84 -11.68,0 -19.61,-6.258 -21.69,-16.071 -0.42,-2.078 -0.63,-4.589 -0.63,-7.089 l 0,-51.7309 -31.71,0 0,68.4219"
             id="path52"
             style="fill:#5d5c5f;fill-opacity:1;fill-rule:nonzero;stroke:none" /></g></g><g
         id="g54"><g
           clip-path="url(#clipPath58)"
           id="g56"><path
             d="m 1493.87,195.551 c 0,-10.352 -8.39,-18.75 -18.74,-18.75 -10.36,0 -18.75,8.39 -18.75,18.75 0,10.347 8.39,18.738 18.75,18.738 10.35,0 18.74,-8.391 18.74,-18.738"
             id="path62"
             style="fill:#f58114;fill-opacity:1;fill-rule:nonzero;stroke:none" /></g></g><g
         id="g64"><g
           clip-path="url(#clipPath68)"
           id="g66"><path
             d="m 1521.74,195.148 c 0.21,8.372 -3.36,16.582 -15.6,18.481 -7.87,1.223 -1.52,-3.828 -1.52,-3.828 0,0 10.55,-5.403 10.23,-14.61 -0.31,-9.203 -10.28,-14.64 -10.28,-14.64 0,0 -6.35,-5.063 1.53,-3.84 11.86,1.848 15.43,10.07 15.64,18.437"
             id="path72"
             style="fill:#f58114;fill-opacity:1;fill-rule:nonzero;stroke:none" /></g></g><g
         id="g74"><g
           clip-path="url(#clipPath78)"
           id="g76"><path
             d="m 1551.38,195.148 c 0.21,8.372 -3.37,16.582 -15.6,18.481 -7.88,1.223 -1.53,-3.828 -1.53,-3.828 0,0 10.55,-5.403 10.24,-14.61 -0.32,-9.203 -10.28,-14.64 -10.28,-14.64 0,0 -6.35,-5.063 1.53,-3.84 11.85,1.848 15.42,10.07 15.64,18.437"
             id="path82"
             style="fill:#f58114;fill-opacity:1;fill-rule:nonzero;stroke:none" /></g></g><g
         id="g84"><g
           clip-path="url(#clipPath88)"
           id="g86"><path
             d="m 1580.29,195.148 c 0.22,8.372 -3.36,16.582 -15.59,18.481 -7.88,1.223 -1.53,-3.828 -1.53,-3.828 0,0 10.55,-5.403 10.24,-14.61 -0.32,-9.203 -10.28,-14.64 -10.28,-14.64 0,0 -6.35,-5.063 1.52,-3.84 11.86,1.848 15.43,10.07 15.64,18.437"
             id="path92"
             style="fill:#f58114;fill-opacity:1;fill-rule:nonzero;stroke:none" /></g></g><g
         id="g94"><g
           clip-path="url(#clipPath98)"
           id="g96"><path
             d="m 1604.76,195.148 c 0.22,8.372 -3.36,16.582 -15.59,18.481 -7.88,1.223 -1.53,-3.828 -1.53,-3.828 0,0 10.55,-5.403 10.24,-14.61 -0.32,-9.203 -10.28,-14.64 -10.28,-14.64 0,0 -6.35,-5.063 1.52,-3.84 11.86,1.848 15.43,10.07 15.64,18.437"
             id="path102"
             style="fill:#f58114;fill-opacity:1;fill-rule:nonzero;stroke:none" /></g></g><g
         id="g104"><g
           clip-path="url(#clipPath108)"
           id="g106"><path
             d="m 1632.83,195.148 c 0.22,8.372 -3.36,16.582 -15.59,18.481 -7.88,1.223 -1.53,-3.828 -1.53,-3.828 0,0 10.55,-5.403 10.24,-14.61 -0.32,-9.203 -10.28,-14.64 -10.28,-14.64 0,0 -6.35,-5.063 1.52,-3.84 11.86,1.848 15.43,10.07 15.64,18.437"
             id="path112"
             style="fill:#f58114;fill-opacity:1;fill-rule:nonzero;stroke:none" /></g></g></g></g></svg>