<?xml version="1.0" encoding="UTF-8" standalone="no"?>
<!-- Created with Inkscape (http://www.inkscape.org/) -->

<svg
   xmlns:dc="http://purl.org/dc/elements/1.1/"
   xmlns:cc="http://creativecommons.org/ns#"
   xmlns:rdf="http://www.w3.org/1999/02/22-rdf-syntax-ns#"
   xmlns:svg="http://www.w3.org/2000/svg"
   xmlns="http://www.w3.org/2000/svg"
   version="1.1"
   width="369.625"
   height="212.3875"
   id="svg2"
   xml:space="preserve"><metadata
     id="metadata8"><rdf:RDF><cc:Work
         rdf:about=""><dc:format>image/svg+xml</dc:format><dc:type
           rdf:resource="http://purl.org/dc/dcmitype/StillImage" /><dc:title></dc:title></cc:Work></rdf:RDF></metadata><defs
     id="defs6"><clipPath
       id="clipPath30"><path
         d="m 1322.45,0 1082.21,0 0,824.641 -1082.21,0 0,-824.641 z"
         id="path32" /></clipPath><clipPath
       id="clipPath50"><path
         d="m 1867.34,244.441 c 0,-12.941 -10.49,-23.441 -23.43,-23.441 -12.95,0 -23.43,10.488 -23.43,23.441 0,12.938 10.48,23.418 23.43,23.418 12.94,0 23.43,-10.48 23.43,-23.418 z"
         id="path52" /></clipPath><clipPath
       id="clipPath60"><path
         d="m 1902.17,243.941 c 0.27,10.457 -4.19,20.719 -19.49,23.098 -9.84,1.52 -1.91,-4.789 -1.91,-4.789 0,0 13.19,-6.75 12.79,-18.262 -0.39,-11.5 -12.85,-18.297 -12.85,-18.297 0,0 -7.94,-6.332 1.91,-4.8 14.83,2.308 19.29,12.578 19.55,23.05 z"
         id="path62" /></clipPath><clipPath
       id="clipPath70"><path
         d="m 1939.23,243.941 c 0.26,10.457 -4.22,20.719 -19.5,23.098 -9.85,1.52 -1.92,-4.789 -1.92,-4.789 0,0 13.19,-6.75 12.8,-18.262 -0.4,-11.5 -12.85,-18.297 -12.85,-18.297 0,0 -7.94,-6.332 1.91,-4.8 14.82,2.308 19.28,12.578 19.56,23.05 l 0,0 z"
         id="path72" /></clipPath><clipPath
       id="clipPath80"><path
         d="m 1975.36,243.941 c 0.28,10.457 -4.2,20.719 -19.48,23.098 -9.85,1.52 -1.92,-4.789 -1.92,-4.789 0,0 13.19,-6.75 12.8,-18.262 -0.4,-11.5 -12.85,-18.297 -12.85,-18.297 0,0 -7.93,-6.332 1.9,-4.8 14.83,2.308 19.29,12.578 19.55,23.05 z"
         id="path82" /></clipPath><clipPath
       id="clipPath90"><path
         d="m 2005.95,243.941 c 0.27,10.457 -4.2,20.719 -19.49,23.098 -9.85,1.52 -1.91,-4.789 -1.91,-4.789 0,0 13.19,-6.75 12.8,-18.262 -0.4,-11.5 -12.85,-18.297 -12.85,-18.297 0,0 -7.94,-6.332 1.9,-4.8 14.82,2.308 19.29,12.578 19.55,23.05 l 0,0 z"
         id="path92" /></clipPath><clipPath
       id="clipPath100"><path
         d="m 2041.04,243.941 c 0.27,10.457 -4.2,20.719 -19.49,23.098 -9.85,1.52 -1.91,-4.789 -1.91,-4.789 0,0 13.19,-6.75 12.8,-18.262 -0.4,-11.5 -12.85,-18.297 -12.85,-18.297 0,0 -7.94,-6.332 1.9,-4.8 14.82,2.308 19.28,12.578 19.55,23.05 l 0,0 z"
         id="path102" /></clipPath></defs><g
     transform="matrix(1.25,0,0,-1.25,0,212.3875)"
     id="g10"><g
       transform="scale(0.1,0.1)"
       id="g12"><path
         d="m 1404.21,1006.36 c 21.39,0 39.72,3.25 55.04,9.75 15.3,6.5 27.99,14.99 38.05,25.48 10.06,10.47 17.39,22.42 22,35.84 4.62,13.42 6.92,27.26 6.92,41.51 0,15.51 -2.82,28.94 -8.48,40.26 -5.68,11.32 -13.33,20.44 -22.95,27.35 -9.67,6.92 -20.99,12.05 -33.98,15.41 -12.99,3.35 -26.82,5.03 -41.5,5.03 -23.49,0 -43.09,-3.67 -58.8,-11 -15.74,-7.34 -28.31,-16.35 -37.75,-27.05 -9.42,-10.69 -16.25,-22.12 -20.44,-34.28 -4.19,-12.16 -6.28,-23.05 -6.28,-32.7 0,-28.93 8.8,-52.1 26.41,-69.49 17.61,-17.4 44.86,-26.11 81.76,-26.11"
         id="path14"
         style="fill:#457f30;fill-opacity:1;fill-rule:nonzero;stroke:none" /><path
         d="m 2875.9,607.629 c -16.35,-15.938 -36.26,-32.809 -59.74,-50.641 -23.49,-17.816 -48.44,-34.269 -74.85,-49.359 -26.41,-15.09 -53.56,-27.668 -81.45,-37.738 -27.87,-10.059 -54.38,-15.09 -79.56,-15.09 -7.96,0 -15.4,0.828 -22.31,2.508 -6.93,1.671 -13.53,4.613 -19.81,8.812 -6.29,4.188 -12.49,10.059 -18.55,17.609 -6.09,7.551 -12.28,16.981 -18.57,28.301 36.48,10.059 70.34,24.11 101.57,42.141 31.23,18.019 58.18,38.566 80.82,61.629 22.65,23.058 40.35,47.578 53.15,73.59 12.78,25.988 19.18,51.984 19.18,77.98 0,23.906 -4.19,45.492 -12.58,64.777 -8.39,19.286 -20.02,35.747 -34.91,49.375 -14.89,13.625 -32.39,24.215 -52.51,31.766 -20.13,7.543 -41.93,11.316 -65.4,11.316 -28.94,0 -55.25,-5.14 -78.94,-15.41 -23.69,-10.277 -45.08,-24.113 -64.14,-41.511 -19.09,-17.399 -35.76,-37.52 -50.01,-60.375 -14.25,-22.852 -26.09,-46.852 -35.53,-72.008 -9.45,-25.16 -16.46,-50.852 -21.07,-77.051 -4.61,-26.211 -6.93,-51.039 -6.93,-74.531 0,-15.84 1.17,-31.309 3.2,-46.489 -0.22,-0.218 -0.46,-0.449 -0.68,-0.671 -8.8,-8.387 -18.03,-16.457 -27.67,-24.207 -9.65,-7.77 -19.5,-14.582 -29.56,-20.442 -10.06,-5.89 -19.92,-10.699 -29.55,-14.469 -9.66,-3.781 -18.89,-5.66 -27.69,-5.66 -8.38,0 -15.51,7.117 -21.38,21.391 -5.87,14.238 -8.8,32.687 -8.8,55.34 0,28.929 1.46,56.289 4.41,82.078 2.91,25.781 6.29,51.25 10.06,76.402 3.78,25.164 7.11,50.735 10.06,76.735 2.93,25.992 4.39,53.457 4.39,82.386 0,18.871 -6.81,33.434 -20.42,43.715 -13.64,10.266 -30.32,15.41 -50,15.41 -17.62,0 -32.52,-5.773 -44.67,-17.3 -12.16,-11.536 -24.32,-25.684 -36.46,-42.454 -12.6,-17.195 -26.11,-37.101 -40.57,-59.746 -14.48,-22.636 -28.1,-44.242 -40.89,-64.777 -12.8,-20.555 -23.59,-38.047 -32.39,-52.52 -8.8,-14.461 -13.62,-22.32 -14.47,-23.582 l -6.92,7.551 c 0,0.828 0.22,2.512 0.63,5.031 0.41,2.508 1.67,8.59 3.77,18.239 2.93,13.828 6.09,27.355 9.44,40.562 3.36,13.203 6.6,26.731 9.75,40.563 3.14,13.84 5.76,28.09 7.86,42.769 2.1,14.672 3.15,30.196 3.15,46.539 0,18.871 -6.28,33.434 -18.86,43.715 -12.6,10.266 -27.69,15.41 -45.3,15.41 -18.86,0 -35.11,-5.66 -48.74,-16.98 -13.62,-11.324 -26.51,-25.586 -38.67,-42.774 -12.58,-17.195 -25.79,-37 -39.63,-59.429 -13.83,-22.434 -26.72,-43.926 -38.67,-64.465 -11.96,-20.551 -22.03,-38.16 -30.19,-52.828 -8.19,-14.68 -12.7,-22.641 -13.52,-23.903 l -6.93,7.551 c 4.19,26.41 8.19,51.977 11.96,76.723 1.67,10.48 3.24,21.281 4.72,32.39 1.46,11.106 2.82,21.907 4.08,32.391 1.25,10.477 2.2,20.332 2.83,29.566 0.64,9.208 0.95,17.391 0.95,24.524 0,12.988 -0.41,23.266 -1.26,30.812 -0.84,7.551 -3.47,13.313 -7.85,17.297 -4.42,3.981 -11.12,6.496 -20.13,7.547 -9.02,1.043 -21.5,1.574 -37.42,1.574 -10.49,0 -19.09,-0.742 -25.79,-2.203 -6.73,-1.472 -12.49,-4.402 -17.3,-8.804 -4.83,-4.403 -9.11,-10.59 -12.89,-18.555 -3.77,-7.965 -7.76,-18.656 -11.95,-32.07 -4.21,-13 -8.81,-29.778 -13.84,-50.313 -5.03,-20.547 -9.97,-43.195 -14.78,-67.926 -4.83,-24.746 -9.44,-50.625 -13.84,-77.672 -4.4,-27.043 -8.28,-53.57 -11.63,-79.562 -2.52,-19.43 -4.56,-37.918 -6.36,-55.938 -14.25,-12.3 -28.55,-24.55 -43.32,-36.203 -18.87,-14.879 -37.53,-27.566 -55.98,-38.047 -18.45,-10.48 -35.21,-15.722 -50.31,-15.722 -13,0 -21.6,5.543 -25.79,16.672 -4.2,11.097 -6.29,26.097 -6.29,44.968 0,19.27 2.09,40.973 6.29,65.09 4.19,24.102 9.43,48.84 15.71,74.211 6.32,25.36 13,50.719 20.14,76.102 7.13,25.359 13.84,49.054 20.13,71.066 6.28,22.02 11.52,41.719 15.71,59.121 4.19,17.395 6.29,30.711 6.29,39.934 0,10.898 -3.13,19.597 -9.43,26.101 -6.29,6.496 -18.24,9.75 -35.85,9.75 -9.65,0 -20.42,-1.16 -32.39,-3.461 -11.93,-2.308 -23.47,-5.875 -34.58,-10.687 -11.12,-4.824 -21.08,-11.113 -29.88,-18.867 -8.81,-7.77 -14.69,-17.09 -17.61,-27.989 -7.55,-31.449 -16.25,-65.832 -26.1,-103.144 -9.86,-37.324 -19.18,-74.746 -27.98,-112.266 -8.8,-37.531 -16.27,-73.8 -22.33,-108.8 -5.15,-29.668 -7.99,-56.051 -8.78,-79.532 l -4.94,-21.679 c -8.63,-37.977 -46.07,-109.821 -125.96,-109.821 -99.319,0 -184.217,41.602 -274.104,85.641 -19.176,9.41 -38.832,19.031 -59.031,28.48 38.363,75.18 69.488,166.071 92.699,270.707 290.366,129.516 442.196,440.224 442.196,683.374 0,176.88 -80.76,286.76 -210.77,286.76 -207.078,0 -305.008,-191.91 -361.317,-707.919 -7.546,-65.672 -16.007,-134.648 -26.898,-196.984 -44.312,-11.481 -91.719,-17.297 -141.148,-17.297 -263.668,0 -357.231,140.406 -357.231,260.64 0,107.61 76.899,221.99 219.418,221.99 33.867,0 62.039,-7.54 88.641,-23.74 l 21.308,-12.97 70.528,144.64 -18.571,10.55 c -52.75,29.93 -97.785,41.59 -160.617,41.59 C 138.102,1404.45 0,1216.74 0,1035.26 0,858.414 132.449,651.898 505.727,651.898 c 39.214,0 78.066,2.903 115.933,8.641 -15.039,-64.418 -31.566,-118.48 -50.144,-163.969 -67.371,20.68 -136.305,30.77 -210.051,30.77 -148.52,0 -226.227,-89.192 -226.227,-177.289 0,-78.563 61.922,-163.11 197.891,-163.11 124.656,0 228.965,50.809 310.348,151.11 22.832,-11.789 45.621,-24.219 67.793,-36.321 103.335,-56.441 210.191,-114.789 335.4,-114.789 103.71,0 188.36,49.2 238.4,134.758 2.2,-0.058 4.28,-0.238 6.55,-0.238 24.33,0 50.02,4.398 77.05,13.219 27.05,8.789 53.57,19.808 79.57,33.011 23.78,12.09 45.9,25.36 66.71,39.559 0.11,-1.012 0.15,-2.078 0.27,-3.07 1.88,-15.731 5.65,-29.789 11.32,-42.16 5.65,-12.36 13.73,-22.219 24.21,-29.551 10.47,-7.348 24.31,-11.008 41.51,-11.008 13.41,0 25.68,3.039 36.79,9.129 11.11,6.07 20.86,17.699 29.25,34.902 28.93,58.27 52.51,106.809 70.76,145.598 18.23,38.781 33.21,70.332 44.96,94.648 11.74,24.321 20.86,42.762 27.37,55.352 6.48,12.57 12.25,22.012 17.27,28.301 l 9.45,0 c -6.72,-38.59 -12.37,-74.641 -16.98,-108.18 -2.11,-14.25 -4.19,-28.609 -6.29,-43.082 -2.11,-14.469 -3.99,-28.199 -5.67,-41.188 -1.68,-13 -2.93,-24.531 -3.76,-34.601 -0.85,-10.059 -1.26,-17.82 -1.26,-23.258 0,-13 0.72,-26.434 2.2,-40.25 1.46,-13.844 4.4,-26.531 8.81,-38.062 4.39,-11.528 10.58,-20.969 18.55,-28.301 7.95,-7.348 18.64,-11.008 32.06,-11.008 17.62,0 33.12,3.039 46.55,9.129 13.42,6.07 25.58,17.91 36.48,35.539 l 127.68,325.141 9.42,0 c -3.35,-30.18 -5.97,-60.059 -7.85,-89.622 -1.9,-29.546 -2.82,-57.539 -2.82,-83.957 0,-28.089 1.33,-54.089 4.07,-77.992 2.73,-23.89 7.24,-44.648 13.53,-62.258 6.28,-17.601 14.56,-31.339 24.85,-41.191 10.26,-9.859 22.95,-14.789 38.03,-14.789 30.6,0 58.08,4.098 82.39,12.277 24.31,8.172 46.64,18.653 66.99,31.434 20.32,12.789 39.62,27.047 57.86,42.769 7.28,6.27 14.64,12.09 21.95,18.188 5.51,-8.949 11.36,-17.629 17.99,-25.731 19.71,-24.117 44.35,-43.296 73.9,-57.546 29.56,-14.262 64.05,-21.391 103.45,-21.391 25.17,0 50.01,2.84 74.54,8.5 24.52,5.648 48.21,13.199 71.06,22.641 22.85,9.418 44.65,20.23 65.41,32.386 20.76,12.153 40.15,24.524 58.19,37.114 41.5,29.339 80.7,63.097 117.6,101.25 l -81.14,84.277 M 845.172,971.02 c 57.82,540.57 135.344,603.08 188.628,603.08 34.17,0 57.13,-58.16 57.13,-144.71 0,-145.83 -69.63,-403.09 -257.848,-553.597 4.5,29.676 8.809,61.668 12.09,95.227 z M 349.879,294.211 c -51.918,0 -75.164,26.75 -75.164,53.258 0,34.57 34.465,71.312 98.348,71.312 47.789,0 95.312,-8.172 144.554,-24.883 -46.562,-67.019 -101.644,-99.687 -167.738,-99.687 z m 2137.971,356.18 c 0.85,12.988 2.63,26.418 5.36,40.257 2.7,13.832 6.69,27.563 11.94,41.192 5.24,13.621 12.16,25.789 20.76,36.476 8.58,10.696 19.28,19.399 32.08,26.106 12.79,6.699 28.19,10.058 46.22,10.058 10.07,0 18.55,-6.082 25.47,-18.23 6.92,-12.176 10.37,-27.684 10.37,-46.547 0,-13.426 -5.24,-27.265 -15.71,-41.512 -10.49,-14.261 -23.38,-27.461 -38.68,-39.621 -15.32,-12.172 -31.87,-22.121 -49.68,-29.871 -17.84,-7.769 -34.29,-11.64 -49.38,-11.64 0,9.222 0.41,20.339 1.25,33.332 l 0,0"
         id="path16"
         style="fill:#457f30;fill-opacity:1;fill-rule:nonzero;stroke:none" /><path
         d="m 1404.21,1021.52 c 21.39,0 39.72,3.24 55.04,9.75 15.3,6.5 27.99,14.98 38.05,25.47 10.06,10.47 17.39,22.42 22,35.85 4.62,13.41 6.92,27.25 6.92,41.5 0,15.51 -2.82,28.94 -8.48,40.26 -5.68,11.32 -13.33,20.44 -22.95,27.36 -9.67,6.92 -20.99,12.04 -33.98,15.4 -12.99,3.35 -26.82,5.03 -41.5,5.03 -23.49,0 -43.09,-3.67 -58.8,-11 -15.74,-7.34 -28.31,-16.35 -37.75,-27.05 -9.42,-10.69 -16.25,-22.11 -20.44,-34.27 -4.19,-12.17 -6.28,-23.07 -6.28,-32.7 0,-28.94 8.8,-52.11 26.41,-69.5 17.61,-17.4 44.86,-26.1 81.76,-26.1"
         id="path18"
         style="fill:#ffffff;fill-opacity:1;fill-rule:nonzero;stroke:none" /><path
         d="m 2875.9,622.781 c -16.35,-15.941 -36.26,-32.812 -59.74,-50.633 -23.49,-17.828 -48.44,-34.277 -74.85,-49.367 -26.41,-15.09 -53.56,-27.672 -81.45,-37.742 -27.87,-10.059 -54.38,-15.09 -79.56,-15.09 -7.96,0 -15.4,0.832 -22.31,2.512 -6.93,1.668 -13.53,4.609 -19.81,8.809 -6.29,4.191 -12.49,10.07 -18.55,17.609 -6.09,7.551 -12.28,16.98 -18.57,28.301 36.48,10.058 70.34,24.101 101.57,42.14 31.23,18.032 58.18,38.571 80.82,61.629 22.65,23.063 40.35,47.582 53.15,73.59 12.78,25.992 19.18,51.984 19.18,77.984 0,23.907 -4.19,45.493 -12.58,64.782 -8.39,19.281 -20.02,35.738 -34.91,49.375 -14.89,13.621 -32.39,24.218 -52.51,31.761 -20.13,7.547 -41.93,11.317 -65.4,11.317 -28.94,0 -55.25,-5.141 -78.94,-15.41 -23.69,-10.274 -45.08,-24.118 -64.14,-41.512 -19.09,-17.398 -35.76,-37.52 -50.01,-60.375 -14.25,-22.856 -26.09,-46.852 -35.53,-72.008 -9.45,-25.164 -16.46,-50.851 -21.07,-77.043 -4.61,-26.211 -6.93,-51.051 -6.93,-74.531 0,-15.84 1.17,-31.309 3.2,-46.5 -0.22,-0.219 -0.46,-0.449 -0.68,-0.66 -8.8,-8.399 -18.03,-16.469 -27.67,-24.219 -9.65,-7.77 -19.5,-14.578 -29.56,-20.441 -10.06,-5.887 -19.92,-10.688 -29.55,-14.457 -9.66,-3.782 -18.89,-5.672 -27.69,-5.672 -8.38,0 -15.51,7.121 -21.38,21.379 -5.87,14.261 -8.8,32.703 -8.8,55.351 0,28.93 1.46,56.289 4.41,82.078 2.91,25.782 6.29,51.25 10.06,76.407 3.78,25.16 7.11,50.734 10.06,76.734 2.93,25.992 4.39,53.457 4.39,82.387 0,18.867 -6.81,33.433 -20.42,43.711 -13.64,10.269 -30.32,15.41 -50,15.41 -17.62,0 -32.52,-5.77 -44.67,-17.297 -12.16,-11.535 -24.32,-25.684 -36.46,-42.453 -12.6,-17.196 -26.11,-37.106 -40.57,-59.746 -14.48,-22.637 -28.1,-44.239 -40.89,-64.782 -12.8,-20.55 -23.59,-38.046 -32.39,-52.519 -8.8,-14.461 -13.62,-22.32 -14.47,-23.578 l -6.92,7.547 c 0,0.839 0.22,2.523 0.63,5.031 0.41,2.519 1.67,8.59 3.77,18.238 2.93,13.832 6.09,27.36 9.44,40.567 3.36,13.203 6.6,26.73 9.75,40.562 3.14,13.84 5.76,28.09 7.86,42.773 2.1,14.665 3.15,30.188 3.15,46.536 0,18.867 -6.28,33.433 -18.86,43.711 -12.6,10.269 -27.69,15.41 -45.3,15.41 -18.86,0 -35.11,-5.657 -48.74,-16.977 -13.62,-11.328 -26.51,-25.586 -38.67,-42.773 -12.58,-17.196 -25.79,-37 -39.63,-59.434 -13.83,-22.433 -26.72,-43.926 -38.67,-64.465 -11.96,-20.55 -22.03,-38.156 -30.19,-52.828 -8.19,-14.68 -12.7,-22.64 -13.52,-23.898 l -6.93,7.547 c 4.19,26.414 8.19,51.98 11.96,76.73 1.67,10.473 3.24,21.274 4.72,32.391 1.46,11.101 2.82,21.902 4.08,32.386 1.25,10.477 2.2,20.329 2.83,29.563 0.64,9.211 0.95,17.394 0.95,24.527 0,12.989 -0.41,23.266 -1.26,30.813 -0.84,7.551 -3.47,13.308 -7.85,17.297 -4.42,3.98 -11.12,6.496 -20.13,7.547 -9.02,1.042 -21.5,1.574 -37.42,1.574 -10.49,0 -19.09,-0.742 -25.79,-2.207 -6.73,-1.469 -12.49,-4.399 -17.3,-8.801 -4.83,-4.402 -9.11,-10.594 -12.89,-18.559 -3.77,-7.961 -7.76,-18.656 -11.95,-32.066 -4.21,-13 -8.81,-29.777 -13.84,-50.313 -5.03,-20.55 -9.97,-43.195 -14.78,-67.925 -4.83,-24.75 -9.44,-50.625 -13.84,-77.676 -4.4,-27.039 -8.28,-53.57 -11.63,-79.559 -2.52,-19.429 -4.56,-37.922 -6.36,-55.941 -14.25,-12.301 -28.55,-24.551 -43.32,-36.199 -18.87,-14.879 -37.53,-27.571 -55.98,-38.051 -18.45,-10.481 -35.21,-15.719 -50.31,-15.719 -13,0 -21.6,5.551 -25.79,16.668 -4.2,11.102 -6.29,26.102 -6.29,44.973 0,19.269 2.09,40.968 6.29,65.09 4.19,24.097 9.43,48.839 15.71,74.207 6.32,25.363 13,50.726 20.14,76.101 7.13,25.363 13.84,49.059 20.13,71.07 6.28,22.016 11.52,41.719 15.71,59.122 4.19,17.39 6.29,30.707 6.29,39.937 0,10.891 -3.13,19.594 -9.43,26.098 -6.29,6.496 -18.24,9.75 -35.85,9.75 -9.65,0 -20.42,-1.16 -32.39,-3.461 -11.93,-2.309 -23.47,-5.871 -34.58,-10.688 -11.12,-4.824 -21.08,-11.113 -29.88,-18.867 -8.81,-7.769 -14.69,-17.09 -17.61,-27.988 -7.55,-31.453 -16.25,-65.828 -26.1,-103.145 -9.86,-37.324 -19.18,-74.746 -27.98,-112.269 -8.8,-37.528 -16.27,-73.797 -22.33,-108.797 -5.15,-29.66 -7.99,-56.051 -8.78,-79.531 l -4.94,-21.68 c -8.63,-37.992 -46.07,-109.82 -125.96,-109.82 -99.319,0 -184.217,41.597 -274.104,85.648 -19.176,9.402 -38.832,19.02 -59.031,28.473 38.363,75.179 69.488,166.07 92.699,270.707 290.366,129.515 442.196,440.221 442.196,683.371 0,176.89 -80.76,286.76 -210.77,286.76 -207.078,0 -305.008,-191.9 -361.317,-707.916 -7.546,-65.672 -16.007,-134.649 -26.898,-196.989 -44.312,-11.476 -91.719,-17.293 -141.148,-17.293 -263.668,0 -357.231,140.403 -357.231,260.628 0,107.62 76.899,221.99 219.418,221.99 33.867,0 62.039,-7.53 88.641,-23.73 l 21.308,-12.97 70.528,144.64 -18.571,10.55 c -52.75,29.93 -97.785,41.6 -160.617,41.6 C 138.102,1419.61 0,1231.89 0,1050.41 0,873.566 132.449,667.051 505.727,667.051 c 39.214,0 78.066,2.898 115.933,8.64 -15.039,-64.421 -31.566,-118.48 -50.144,-163.972 -67.371,20.691 -136.305,30.769 -210.051,30.769 -148.52,0 -226.227,-89.187 -226.227,-177.289 0,-78.558 61.922,-163.109 197.891,-163.109 124.656,0 228.965,50.808 310.348,151.109 22.832,-11.789 45.621,-24.219 67.793,-36.32 103.335,-56.438 210.191,-114.789 335.4,-114.789 103.71,0 188.36,49.199 238.4,134.762 2.2,-0.063 4.28,-0.243 6.55,-0.243 24.33,0 50.02,4.403 77.05,13.223 27.05,8.797 53.57,19.809 79.57,33.008 23.78,12.082 45.9,25.359 66.71,39.558 0.11,-1.007 0.15,-2.066 0.27,-3.078 1.88,-15.718 5.65,-29.781 11.32,-42.14 5.65,-12.371 13.73,-22.219 24.21,-29.559 10.47,-7.34 24.31,-11.012 41.51,-11.012 13.41,0 25.68,3.039 36.79,9.129 11.11,6.071 20.86,17.703 29.25,34.903 28.93,58.269 52.51,106.808 70.76,145.597 18.23,38.782 33.21,70.332 44.96,94.66 11.74,24.313 20.86,42.762 27.37,55.34 6.48,12.582 12.25,22.012 17.27,28.301 l 9.45,0 c -6.72,-38.578 -12.37,-74.629 -16.98,-108.18 -2.11,-14.25 -4.19,-28.609 -6.29,-43.078 -2.11,-14.461 -3.99,-28.199 -5.67,-41.191 -1.68,-13 -2.93,-24.531 -3.76,-34.602 -0.85,-10.058 -1.26,-17.816 -1.26,-23.258 0,-13.011 0.72,-26.41 2.2,-40.25 1.46,-13.839 4.4,-26.531 8.81,-38.05 4.39,-11.539 10.58,-20.969 18.55,-28.309 7.95,-7.34 18.64,-11.012 32.06,-11.012 17.62,0 33.12,3.039 46.55,9.129 13.42,6.071 25.58,17.922 36.48,35.543 l 127.68,325.141 9.42,0 c -3.35,-30.184 -5.97,-60.051 -7.85,-89.621 -1.9,-29.551 -2.82,-57.539 -2.82,-83.961 0,-28.09 1.33,-54.09 4.07,-77.981 2.73,-23.898 7.24,-44.66 13.53,-62.269 6.28,-17.602 14.56,-31.34 24.85,-41.192 10.26,-9.859 22.95,-14.789 38.03,-14.789 30.6,0 58.08,4.11 82.39,12.282 24.31,8.168 46.64,18.648 66.99,31.441 20.32,12.777 39.62,27.047 57.86,42.77 7.28,6.257 14.64,12.07 21.95,18.179 5.51,-8.949 11.36,-17.633 17.99,-25.73 19.71,-24.129 44.35,-43.301 73.9,-57.551 29.56,-14.262 64.05,-21.391 103.45,-21.391 25.17,0 50.01,2.84 74.54,8.512 24.52,5.649 48.21,13.188 71.06,22.629 22.85,9.43 44.65,20.23 65.41,32.391 20.76,12.148 40.15,24.519 58.19,37.109 41.5,29.34 80.7,63.102 117.6,101.25 l -81.14,84.281 M 845.172,986.168 c 57.82,540.572 135.344,603.082 188.628,603.082 34.17,0 57.13,-58.15 57.13,-144.71 0,-145.83 -69.63,-403.09 -257.848,-553.595 4.5,29.68 8.809,61.664 12.09,95.223 z M 349.879,309.359 c -51.918,0 -75.164,26.75 -75.164,53.262 0,34.57 34.465,71.301 98.348,71.301 47.789,0 95.312,-8.16 144.554,-24.871 C 471.055,342.02 415.973,309.359 349.879,309.359 z m 2137.971,356.18 c 0.85,12.992 2.63,26.422 5.36,40.258 2.7,13.836 6.69,27.566 11.94,41.191 5.24,13.625 12.16,25.793 20.76,36.481 8.58,10.695 19.28,19.394 32.08,26.105 12.79,6.703 28.19,10.063 46.22,10.063 10.07,0 18.55,-6.082 25.47,-18.239 6.92,-12.171 10.37,-27.679 10.37,-46.543 0,-13.425 -5.24,-27.265 -15.71,-41.511 -10.49,-14.262 -23.38,-27.465 -38.68,-39.625 -15.32,-12.16 -31.87,-22.117 -49.68,-29.867 -17.84,-7.77 -34.29,-11.641 -49.38,-11.641 0,9.219 0.41,20.34 1.25,33.328 l 0,0"
         id="path20"
         style="fill:#ffffff;fill-opacity:1;fill-rule:nonzero;stroke:none" /><path
         d="m 1426.05,165.352 c -2.78,0 -5.29,-0.262 -7.53,-0.793 -2.25,-0.539 -4.34,-1.289 -6.25,-2.27 -1.92,-0.98 -3.7,-2.219 -5.33,-3.738 -1.63,-1.512 -3.27,-3.242 -4.9,-5.199 l 0,-53.8911 c 2.86,-3.1914 5.96,-5.4101 9.31,-6.6796 3.35,-1.2696 6.86,-1.8907 10.53,-1.8907 3.51,0 6.74,0.6914 9.68,2.0782 2.94,1.3828 5.49,3.6132 7.65,6.6718 2.17,3.0584 3.86,7.0504 5.09,11.9414 1.22,4.898 1.83,10.859 1.83,17.879 0,6.699 -0.49,12.328 -1.47,16.898 -0.97,4.582 -2.35,8.282 -4.1,11.09 -1.76,2.821 -3.86,4.84 -6.31,6.063 -2.45,1.218 -5.18,1.84 -8.2,1.84 z m -61.98,-100.4301 0,183.3481 37.97,0 0,-69.821 c 4.74,4.66 10.11,8.391 16.11,11.223 6,2.808 13.04,4.207 21.13,4.207 6.61,0 12.73,-1.418 18.37,-4.277 5.63,-2.852 10.49,-7.043 14.57,-12.551 4.08,-5.512 7.29,-12.27 9.62,-20.27 2.33,-8 3.49,-17.109 3.49,-27.32 0,-9.551 -1.33,-18.371 -3.98,-26.449 -2.66,-8.0823 -6.37,-15.1136 -11.15,-21.0706 -4.78,-5.9609 -10.49,-10.6094 -17.14,-13.9609 -6.66,-3.3399 -14.03,-5.0196 -22.11,-5.0196 -3.76,0 -7.13,0.3711 -10.11,1.0977 -2.98,0.7305 -5.71,1.7812 -8.2,3.1328 -2.49,1.3399 -4.78,2.9492 -6.86,4.8281 -2.08,1.8711 -4.11,3.9219 -6.07,6.1211 l -1.34,-6.3593 c -0.58,-2.6211 -1.62,-4.4102 -3.13,-5.4024 -1.51,-0.9687 -3.49,-1.457 -5.94,-1.457 l -25.23,0"
         id="path22"
         style="fill:#ffffff;fill-opacity:1;fill-rule:nonzero;stroke:none" /><path
         d="m 1571.19,31.9688 c -1.15,-2.5274 -2.54,-4.379 -4.17,-5.5782 -1.63,-1.1797 -4.25,-1.7695 -7.84,-1.7695 l -28.41,0 24.49,51.4375 -50.7,115.8714 33.56,0 c 2.93,0 5.22,-0.649 6.86,-1.961 1.63,-1.309 2.77,-2.86 3.43,-4.66 l 20.82,-54.75 c 1.96,-5.047 3.55,-10.118 4.77,-15.18 0.82,2.621 1.72,5.18 2.7,7.711 0.98,2.531 1.91,5.109 2.81,7.719 l 18.87,54.5 c 0.65,1.882 1.93,3.461 3.86,4.722 1.91,1.27 3.98,1.899 6.18,1.899 l 30.62,0 -67.85,-159.9612"
         id="path24"
         style="fill:#ffffff;fill-opacity:1;fill-rule:nonzero;stroke:none" /><g
         id="g26"><g
           clip-path="url(#clipPath30)"
           id="g28"><path
             d="m 1715.01,191.941 17.22,-59.203 c 3.12,-10.949 5.21,-20.859 7.29,-31.027 l 0.78,0 c 2.09,10.43 4.17,20.078 7.05,31.027 l 16.43,59.203 41.72,0 -47.46,-127.5113 -39.64,0 -46.41,127.5113 43.02,0"
             id="path34"
             style="fill:#55555a;fill-opacity:1;fill-rule:nonzero;stroke:none" /><path
             d="m 1823.75,64.4297 39.6406,0 0,127.512 -39.6406,0 0,-127.512 z"
             id="path36"
             style="fill:#55555a;fill-opacity:1;fill-rule:nonzero;stroke:none" /><path
             d="m 1934.82,119.18 c 0,-3.129 0.27,-5.739 0.79,-8.34 2.61,-10.699 11.74,-18.7814 23.21,-18.7814 17.2,0 27.38,14.3394 27.38,35.9924 0,20.34 -9.13,35.711 -26.86,35.711 -11.21,0 -21.12,-8.332 -23.73,-20.071 -0.52,-2.089 -0.79,-4.691 -0.79,-7.043 l 0,-17.468 m -39.62,29.98 c 0,16.692 -0.53,30.781 -1.05,42.781 l 34.43,0 1.82,-17.742 0.51,0 c 9.39,13.301 24,20.602 42.52,20.602 27.9,0 52.92,-24.25 52.92,-64.942 0,-46.4098 -29.46,-68.3082 -57.89,-68.3082 -15.37,0 -27.37,6.2695 -33.11,14.5976 l -0.53,0 0,-63.3593 -39.62,0 0,136.3709"
             id="path38"
             style="fill:#55555a;fill-opacity:1;fill-rule:nonzero;stroke:none" /><path
             d="m 2118.93,124.648 c -20.87,0 -37.03,-4.949 -37.03,-20.066 0,-10.1836 6.78,-15.1328 15.64,-15.1328 9.65,0 18,6.5196 20.6,14.6018 0.52,2.09 0.79,4.437 0.79,6.789 l 0,13.808 m 38.32,-29.4566 c 0,-12 0.53,-23.7305 2.09,-30.7617 l -35.73,0 -2.33,12.7695 -0.79,0 c -8.34,-10.1797 -21.39,-15.6484 -36.51,-15.6484 -25.82,0 -41.19,18.7695 -41.19,39.1092 0,33.129 29.72,48.77 74.84,48.77 l 0,1.558 c 0,7.051 -3.65,16.684 -23.22,16.684 -13.03,0 -26.86,-4.422 -35.2,-9.633 l -7.3,25.551 c 8.87,4.949 26.34,11.469 49.54,11.469 42.5,0 55.8,-25.028 55.8,-55.278 l 0,-44.5896"
             id="path40"
             style="fill:#55555a;fill-opacity:1;fill-rule:nonzero;stroke:none" /><path
             d="m 2256.6,124.648 c -20.85,0 -37.02,-4.949 -37.02,-20.066 0,-10.1836 6.78,-15.1328 15.65,-15.1328 9.65,0 17.98,6.5196 20.6,14.6018 0.51,2.09 0.77,4.437 0.77,6.789 l 0,13.808 m 38.34,-29.4566 c 0,-12 0.52,-23.7305 2.08,-30.7617 l -35.72,0 -2.35,12.7695 -0.79,0 c -8.34,-10.1797 -21.37,-15.6484 -36.5,-15.6484 -25.81,0 -41.2,18.7695 -41.2,39.1092 0,33.129 29.73,48.77 74.84,48.77 l 0,1.558 c 0,7.051 -3.65,16.684 -23.21,16.684 -13.04,0 -26.85,-4.422 -35.2,-9.633 l -7.3,25.551 c 8.86,4.949 26.33,11.469 49.55,11.469 42.5,0 55.8,-25.028 55.8,-55.278 l 0,-44.5896"
             id="path42"
             style="fill:#55555a;fill-opacity:1;fill-rule:nonzero;stroke:none" /><path
             d="m 2326.49,149.949 c 0,18.77 -0.27,31.02 -1.04,41.992 l 33.9,0 1.56,-23.48 1.04,0 c 6.52,18.777 21.9,26.598 34.42,26.598 3.66,0 5.48,-0.258 8.34,-0.778 l 0,-37.293 c -3.12,0.524 -6.25,1.051 -10.69,1.051 -14.6,0 -24.51,-7.828 -27.11,-20.09 -0.52,-2.597 -0.78,-5.738 -0.78,-8.859 l 0,-64.6603 -39.64,0 0,85.5193"
             id="path44"
             style="fill:#55555a;fill-opacity:1;fill-rule:nonzero;stroke:none" /></g></g><g
         id="g46"><g
           clip-path="url(#clipPath50)"
           id="g48"><path
             d="m 1867.34,244.441 c 0,-12.941 -10.49,-23.441 -23.43,-23.441 -12.95,0 -23.43,10.488 -23.43,23.441 0,12.938 10.48,23.418 23.43,23.418 12.94,0 23.43,-10.48 23.43,-23.418"
             id="path54"
             style="fill:#f47116;fill-opacity:1;fill-rule:nonzero;stroke:none" /></g></g><g
         id="g56"><g
           clip-path="url(#clipPath60)"
           id="g58"><path
             d="m 1902.17,243.941 c 0.27,10.457 -4.19,20.719 -19.49,23.098 -9.84,1.52 -1.91,-4.789 -1.91,-4.789 0,0 13.19,-6.75 12.79,-18.262 -0.39,-11.5 -12.85,-18.297 -12.85,-18.297 0,0 -7.94,-6.332 1.91,-4.8 14.83,2.308 19.29,12.578 19.55,23.05"
             id="path64"
             style="fill:#f47116;fill-opacity:1;fill-rule:nonzero;stroke:none" /></g></g><g
         id="g66"><g
           clip-path="url(#clipPath70)"
           id="g68"><path
             d="m 1939.23,243.941 c 0.26,10.457 -4.22,20.719 -19.5,23.098 -9.85,1.52 -1.92,-4.789 -1.92,-4.789 0,0 13.19,-6.75 12.8,-18.262 -0.4,-11.5 -12.85,-18.297 -12.85,-18.297 0,0 -7.94,-6.332 1.91,-4.8 14.82,2.308 19.28,12.578 19.56,23.05"
             id="path74"
             style="fill:#f47116;fill-opacity:1;fill-rule:nonzero;stroke:none" /></g></g><g
         id="g76"><g
           clip-path="url(#clipPath80)"
           id="g78"><path
             d="m 1975.36,243.941 c 0.28,10.457 -4.2,20.719 -19.48,23.098 -9.85,1.52 -1.92,-4.789 -1.92,-4.789 0,0 13.19,-6.75 12.8,-18.262 -0.4,-11.5 -12.85,-18.297 -12.85,-18.297 0,0 -7.93,-6.332 1.9,-4.8 14.83,2.308 19.29,12.578 19.55,23.05"
             id="path84"
             style="fill:#f47116;fill-opacity:1;fill-rule:nonzero;stroke:none" /></g></g><g
         id="g86"><g
           clip-path="url(#clipPath90)"
           id="g88"><path
             d="m 2005.95,243.941 c 0.27,10.457 -4.2,20.719 -19.49,23.098 -9.85,1.52 -1.91,-4.789 -1.91,-4.789 0,0 13.19,-6.75 12.8,-18.262 -0.4,-11.5 -12.85,-18.297 -12.85,-18.297 0,0 -7.94,-6.332 1.9,-4.8 14.82,2.308 19.29,12.578 19.55,23.05"
             id="path94"
             style="fill:#f47116;fill-opacity:1;fill-rule:nonzero;stroke:none" /></g></g><g
         id="g96"><g
           clip-path="url(#clipPath100)"
           id="g98"><path
             d="m 2041.04,243.941 c 0.27,10.457 -4.2,20.719 -19.49,23.098 -9.85,1.52 -1.91,-4.789 -1.91,-4.789 0,0 13.19,-6.75 12.8,-18.262 -0.4,-11.5 -12.85,-18.297 -12.85,-18.297 0,0 -7.94,-6.332 1.9,-4.8 14.82,2.308 19.28,12.578 19.55,23.05"
             id="path104"
             style="fill:#f47116;fill-opacity:1;fill-rule:nonzero;stroke:none" /></g></g></g></g></svg>