<?xml version="1.0" encoding="UTF-8" standalone="no"?>
<!-- Created with Inkscape (http://www.inkscape.org/) -->

<svg
   xmlns:dc="http://purl.org/dc/elements/1.1/"
   xmlns:cc="http://creativecommons.org/ns#"
   xmlns:rdf="http://www.w3.org/1999/02/22-rdf-syntax-ns#"
   xmlns:svg="http://www.w3.org/2000/svg"
   xmlns="http://www.w3.org/2000/svg"
   version="1.1"
   width="850.27502"
   height="842"
   id="svg2"
   xml:space="preserve"><metadata
     id="metadata8"><rdf:RDF><cc:Work
         rdf:about=""><dc:format>image/svg+xml</dc:format><dc:type
           rdf:resource="http://purl.org/dc/dcmitype/StillImage" /><dc:title></dc:title></cc:Work></rdf:RDF></metadata><defs
     id="defs6" /><g
     transform="matrix(1.25,0,0,-1.25,0,842)"
     id="g10"><g
       transform="scale(0.1,0.1)"
       id="g12"><path
         d="M 103.004,2466.66 C 551.48,797.68 2269.05,544.52 4000.6,1010.01 5732.15,1475.58 6138.59,2954.77 6093.04,4682.65 6051.96,6241.91 4338.07,7001.57 2708.25,6652.26 697.793,6221.45 -345.551,4135.81 103.004,2466.66"
         id="path14"
         style="fill:#68a62f;fill-opacity:1;fill-rule:nonzero;stroke:none" /><path
         d="M 155.828,2392.98 C 623.473,653.039 2466.11,-364.211 4271.5,121.059 6076.74,606.211 7161.16,2410.08 6693.51,4150.19 6225.85,5889.97 4383.38,6907.27 2577.99,6422.04 772.594,5936.64 -311.828,4132.93 155.828,2392.98"
         id="path16"
         style="fill:#68a62f;fill-opacity:1;fill-rule:nonzero;stroke:none" /><path
         d="M 282.73,2763.14 C 700.512,1208.27 2304.69,220.309 3917.97,653.922 5531.25,1087.44 6479.34,2854.4 6061.4,4409.27 5643.53,5963.97 4193.91,6797.54 2580.7,6364.02 967.426,5930.33 -135.223,4317.85 282.73,2763.14"
         id="path18"
         style="fill:#9fd84d;fill-opacity:1;fill-rule:nonzero;stroke:none" /><path
         d="M 3712.2,413.859 C 4364.77,558.902 5719.12,1116.85 6181.43,2746.04 6901.68,5283.75 4952.2,6138.5 4587.8,6365.7 4922.16,6275.71 6265.49,5743.65 6693.51,4150.19 7119.77,2563.2 6076.74,606.211 4271.5,121.059 3290.97,-142.488 2299.41,37.2305 1523.14,535.172 1347.01,682.289 1130.12,841.391 959.988,1044.06 741.031,1304.89 404.52,1811.38 316.926,2137.19 890.145,1015.05 2216.78,81.7422 3712.2,413.859"
         id="path20"
         style="fill:#68a62f;fill-opacity:1;fill-rule:nonzero;stroke:none" /><path
         d="m 3208.82,3125.55 c 0,0 660.24,-1855.5 783.79,-2011.18 0,0 347.78,-322.999 732.96,19.67 385.18,342.26 1035.99,833.65 436.16,1222.26 -600.06,388.46 -1738.1,923.87 -1738.1,923.87 0,0 -293.77,40.53 -214.81,-154.62"
         id="path22"
         style="fill:#67a52f;fill-opacity:1;fill-rule:nonzero;stroke:none" /><path
         d="m 2939.99,3078.63 c 0,0 -411.07,-2019.63 -377.66,-2071.9 33.72,-52.5 373.83,-489.218 1041.82,-169.578 0,0 425.06,63.219 174.29,651.378 -250.61,587.84 -589.67,1619.36 -645.38,1670.1 -56.17,51.46 -218.8,13.82 -193.07,-80"
         id="path24"
         style="fill:#67a52f;fill-opacity:1;fill-rule:nonzero;stroke:none" /><path
         d="m 2855.61,3172.93 c 0,0 -198.51,-34.99 -313.1,-129.13 -114.12,-92.95 -1227.3,-1240.41 -1269.18,-1374.83 -41.24,-134.41 261.55,-460.14 393.49,-537.89 131.54,-78.08 843.56,-531.818 864.58,50.58 20.53,582.25 498.1,1975.29 324.21,1991.27"
         id="path26"
         style="fill:#67a52f;fill-opacity:1;fill-rule:nonzero;stroke:none" /><path
         d="m 2715.44,3318.3 c 0,0 -232.87,90.05 -579.69,85.91 -347.23,-3.76 -1628.621,-76.8 -1658.434,-373.68 -29.968,-297.04 410.196,-1486.23 837.324,-1154.5 427.46,331.47 1395.45,1342.3 1400.8,1442.27"
         id="path28"
         style="fill:#67a52f;fill-opacity:1;fill-rule:nonzero;stroke:none" /><path
         d="m 2706.17,3495.3 c 0,0 -1958.025,-216 -2111.705,-175.96 -154.789,40.03 -130.332,382.14 -130.578,455.26 -0.555,72.72 109.082,951.21 532.621,746.38 C 1419.65,4316.65 2949.26,3642.19 2706.17,3495.3"
         id="path30"
         style="fill:#67a52f;fill-opacity:1;fill-rule:nonzero;stroke:none" /><path
         d="m 2658.22,3732.49 c 0,0 265.87,3.91 136.17,240.53 -129.14,236.94 -883.68,1841.19 -1115.67,1749.54 -232.14,-91.83 -1198.286,-834.85 -663.19,-1104.64 535.58,-269.79 1642.69,-885.43 1642.69,-885.43"
         id="path32"
         style="fill:#67a52f;fill-opacity:1;fill-rule:nonzero;stroke:none" /><path
         d="m 2923.21,3884.48 c 0,0 -1037.58,1663.63 -974.06,1908.48 63.21,244.7 1052.85,806.96 1130.13,162.54 77.2,-643.69 165.18,-1936.69 -0.16,-2024.43 -164.38,-87.91 -155.91,-46.59 -155.91,-46.59"
         id="path34"
         style="fill:#67a52f;fill-opacity:1;fill-rule:nonzero;stroke:none" /><path
         d="m 3183.81,4002.43 c 0,0 64.49,-154.55 184.6,-69.84 120.18,84.95 1042.62,1492.61 1120.3,1696.87 77.83,204.58 -39.64,517.12 -347.94,597.51 -307.67,80.47 -927.64,242.86 -957.36,-272.34 -29.33,-514.81 87.1,-1887.47 11.35,-1933.1 l -10.95,-19.1"
         id="path36"
         style="fill:#67a52f;fill-opacity:1;fill-rule:nonzero;stroke:none" /><path
         d="m 3391.67,3859.95 c 0,0 3.43,-131.46 76.15,-172.3 72.72,-40.51 2153.25,527.99 2212.23,599.91 58.02,71.92 146.88,404.68 -44.12,701.23 C 5444.47,5285.03 4843.68,5891.65 4657,5693.23 4470.33,5495.29 3391.67,3859.95 3391.67,3859.95"
         id="path38"
         style="fill:#67a52f;fill-opacity:1;fill-rule:nonzero;stroke:none" /><path
         d="m 3597.99,3621.33 c 0,0 -251.8,-115.88 -102.92,-256.61 148.32,-140.32 1925.58,-1016.57 2009.33,-966.06 83.51,51.46 379.74,351.14 381.82,619.4 106.61,448.07 35.65,1101.04 -364.48,1089.22 -399.97,-12.07 -1923.75,-485.95 -1923.75,-485.95"
         id="path40"
         style="fill:#67a52f;fill-opacity:1;fill-rule:nonzero;stroke:none" /></g></g></svg>