<?xml version="1.0" encoding="UTF-8" standalone="no"?>
<!-- Created with Inkscape (http://www.inkscape.org/) -->

<svg
   xmlns:dc="http://purl.org/dc/elements/1.1/"
   xmlns:cc="http://creativecommons.org/ns#"
   xmlns:rdf="http://www.w3.org/1999/02/22-rdf-syntax-ns#"
   xmlns:svg="http://www.w3.org/2000/svg"
   xmlns="http://www.w3.org/2000/svg"
   version="1.1"
   width="295.70001"
   height="170.75"
   id="svg3004"
   xml:space="preserve"><metadata
     id="metadata3010"><rdf:RDF><cc:Work
         rdf:about=""><dc:format>image/svg+xml</dc:format><dc:type
           rdf:resource="http://purl.org/dc/dcmitype/StillImage" /><dc:title></dc:title></cc:Work></rdf:RDF></metadata><defs
     id="defs3008"><clipPath
       id="clipPath3034"><path
         d="m 1057.96,6.76172 865.77,0 0,659.711 -865.77,0 0,-659.711 z"
         id="path3036" /></clipPath><clipPath
       id="clipPath3054"><path
         d="m 1493.87,202.309 c 0,-10.348 -8.39,-18.75 -18.74,-18.75 -10.36,0 -18.75,8.39 -18.75,18.75 0,10.351 8.39,18.742 18.75,18.742 10.35,0 18.74,-8.391 18.74,-18.742 z"
         id="path3056" /></clipPath><clipPath
       id="clipPath3064"><path
         d="m 1521.74,201.91 c 0.21,8.371 -3.36,16.578 -15.6,18.481 -7.87,1.218 -1.52,-3.832 -1.52,-3.832 0,0 10.55,-5.399 10.23,-14.61 -0.31,-9.199 -10.28,-14.64 -10.28,-14.64 0,0 -6.35,-5.059 1.53,-3.84 11.86,1.851 15.43,10.07 15.64,18.441 z"
         id="path3066" /></clipPath><clipPath
       id="clipPath3074"><path
         d="m 1551.38,201.91 c 0.21,8.371 -3.37,16.578 -15.6,18.481 -7.88,1.218 -1.53,-3.832 -1.53,-3.832 0,0 10.55,-5.399 10.24,-14.61 -0.32,-9.199 -10.28,-14.64 -10.28,-14.64 0,0 -6.35,-5.059 1.53,-3.84 11.85,1.851 15.42,10.07 15.64,18.441 l 0,0 z"
         id="path3076" /></clipPath><clipPath
       id="clipPath3084"><path
         d="m 1580.29,201.91 c 0.22,8.371 -3.36,16.578 -15.59,18.481 -7.88,1.218 -1.53,-3.832 -1.53,-3.832 0,0 10.55,-5.399 10.24,-14.61 -0.32,-9.199 -10.28,-14.64 -10.28,-14.64 0,0 -6.35,-5.059 1.52,-3.84 11.86,1.851 15.43,10.07 15.64,18.441 z"
         id="path3086" /></clipPath><clipPath
       id="clipPath3094"><path
         d="m 1604.76,201.91 c 0.22,8.371 -3.36,16.578 -15.59,18.481 -7.88,1.218 -1.53,-3.832 -1.53,-3.832 0,0 10.55,-5.399 10.24,-14.61 -0.32,-9.199 -10.28,-14.64 -10.28,-14.64 0,0 -6.35,-5.059 1.52,-3.84 11.86,1.851 15.43,10.07 15.64,18.441 l 0,0 z"
         id="path3096" /></clipPath><clipPath
       id="clipPath3104"><path
         d="m 1632.83,201.91 c 0.22,8.371 -3.36,16.578 -15.59,18.481 -7.88,1.218 -1.53,-3.832 -1.53,-3.832 0,0 10.55,-5.399 10.24,-14.61 -0.32,-9.199 -10.28,-14.64 -10.28,-14.64 0,0 -6.35,-5.059 1.52,-3.84 11.86,1.851 15.43,10.07 15.64,18.441 l 0,0 z"
         id="path3106" /></clipPath></defs><g
     transform="matrix(1.25,0,0,-1.25,0,170.75)"
     id="g3012"><g
       transform="scale(0.1,0.1)"
       id="g3014"><path
         d="m 1123.37,811.852 c 17.11,0 31.77,2.597 44.03,7.8 12.24,5.196 22.39,11.985 30.44,20.379 8.05,8.379 13.91,17.938 17.6,28.676 3.7,10.731 5.54,21.805 5.54,33.207 0,12.406 -2.26,23.149 -6.79,32.203 -4.54,9.059 -10.66,16.356 -18.36,21.887 -7.73,5.535 -16.79,9.637 -27.18,12.324 -10.39,2.68 -21.46,4.024 -33.2,4.024 -18.79,0 -34.47,-2.934 -47.04,-8.801 -12.59,-5.871 -22.65,-13.078 -30.2,-21.637 -7.54,-8.555 -13,-17.695 -16.35,-27.422 -3.36,-9.73 -5.03,-18.449 -5.03,-26.16 0,-23.148 7.04,-41.684 21.13,-55.598 14.09,-13.921 35.89,-20.882 65.41,-20.882"
         id="path3016"
         style="fill:#4e7f2e;fill-opacity:1;fill-rule:nonzero;stroke:none" /><path
         d="m 1990.28,527.074 c 0.68,10.391 2.1,21.133 4.29,32.203 2.16,11.067 5.35,22.051 9.55,32.953 4.19,10.899 9.73,20.633 16.61,29.184 6.86,8.555 15.42,15.516 25.66,20.883 10.23,5.359 22.55,8.047 36.98,8.047 8.05,0 14.84,-4.864 20.37,-14.586 5.54,-9.738 8.3,-22.145 8.3,-37.235 0,-10.742 -4.19,-21.812 -12.57,-33.21 -8.39,-11.407 -18.7,-21.969 -30.94,-31.696 -12.26,-9.734 -25.5,-17.695 -39.75,-23.898 -14.27,-6.215 -27.43,-9.309 -39.5,-9.309 0,7.375 0.33,16.266 1,26.664 z M 279.902,242.129 c -41.535,0 -60.132,21.402 -60.132,42.609 0,27.653 27.574,57.043 78.679,57.043 38.231,0 76.25,-6.531 115.645,-19.902 -37.25,-53.617 -81.317,-79.75 -134.192,-79.75 z m 396.235,541.445 c 46.258,432.456 108.277,482.466 150.906,482.466 27.336,0 45.703,-46.53 45.703,-115.77 0,-116.66 -55.707,-322.473 -206.281,-442.875 3.601,23.738 7.047,49.332 9.672,76.179 z M 2300.72,492.863 c -13.08,-12.754 -29.01,-26.25 -47.79,-40.508 -18.79,-14.257 -38.75,-27.417 -59.88,-39.492 -21.13,-12.074 -42.85,-22.136 -65.16,-30.191 -22.3,-8.051 -43.51,-12.074 -63.65,-12.074 -6.37,0 -12.32,0.668 -17.85,2.011 -5.54,1.336 -10.82,3.688 -15.85,7.043 -5.03,3.352 -9.99,8.055 -14.84,14.094 -4.87,6.035 -9.82,13.582 -14.85,22.637 29.18,8.051 56.27,19.285 81.25,33.715 24.99,14.414 46.55,30.851 64.66,49.304 18.12,18.446 32.28,38.063 42.52,58.868 10.22,20.793 15.34,41.589 15.34,62.386 0,19.125 -3.35,36.395 -10.06,51.824 -6.71,15.426 -16.02,28.594 -27.93,39.5 -11.91,10.899 -25.91,19.372 -42.01,25.411 -16.1,6.035 -33.54,9.054 -52.32,9.054 -23.15,0 -44.2,-4.113 -63.15,-12.328 -18.95,-8.222 -36.06,-19.293 -51.31,-33.211 -15.27,-13.918 -28.61,-30.015 -40.01,-48.301 -11.4,-18.281 -20.87,-37.48 -28.42,-57.605 -7.56,-20.129 -13.17,-40.68 -16.86,-61.637 -3.69,-20.968 -5.54,-40.836 -5.54,-59.625 0,-12.672 0.93,-25.047 2.56,-37.195 -0.18,-0.176 -0.37,-0.363 -0.55,-0.535 -7.04,-6.715 -14.42,-13.168 -22.13,-19.371 -7.72,-6.215 -15.6,-11.66 -23.65,-16.352 -8.05,-4.707 -15.94,-8.555 -23.64,-11.57 -7.73,-3.027 -15.11,-4.535 -22.15,-4.535 -6.71,0 -12.41,5.699 -17.11,17.113 -4.69,11.398 -7.04,26.156 -7.04,44.273 0,23.145 1.17,45.032 3.53,65.664 2.33,20.625 5.03,41.004 8.05,61.125 3.02,20.129 5.69,40.586 8.05,61.387 2.34,20.793 3.51,42.766 3.51,65.91 0,15.094 -5.45,26.746 -16.34,34.969 -10.91,8.215 -24.25,12.328 -40,12.328 -14.09,0 -26.01,-4.617 -35.73,-13.84 -9.73,-9.226 -19.46,-20.546 -29.17,-33.961 -10.08,-13.757 -20.89,-29.683 -32.46,-47.796 -11.58,-18.11 -22.48,-35.395 -32.71,-51.825 -10.24,-16.441 -18.87,-30.437 -25.91,-42.015 -7.04,-11.571 -10.9,-17.856 -11.58,-18.864 l -5.53,6.04 c 0,0.667 0.17,2.011 0.5,4.023 0.33,2.012 1.34,6.871 3.02,14.59 2.34,11.066 4.87,21.887 7.55,32.453 2.69,10.562 5.28,21.383 7.8,32.449 2.51,11.074 4.61,22.473 6.29,34.215 1.68,11.738 2.52,24.156 2.52,37.234 0,15.094 -5.03,26.746 -15.09,34.969 -10.08,8.215 -22.15,12.328 -36.24,12.328 -15.09,0 -28.09,-4.527 -38.99,-13.582 -10.9,-9.062 -21.21,-20.469 -30.94,-34.219 -10.06,-13.757 -20.63,-29.601 -31.7,-47.546 -11.07,-17.946 -21.38,-35.141 -30.94,-51.571 -9.57,-16.441 -17.62,-30.527 -24.15,-42.265 -6.55,-11.743 -10.16,-18.11 -10.82,-19.118 l -5.54,6.04 c 3.35,21.128 6.55,41.582 9.57,61.378 1.33,8.383 2.59,17.024 3.77,25.914 1.17,8.883 2.26,17.524 3.27,25.911 1,8.382 1.76,16.265 2.26,23.652 0.51,7.367 0.76,13.914 0.76,19.621 0,10.391 -0.33,18.613 -1.01,24.649 -0.67,6.042 -2.77,10.648 -6.28,13.839 -3.53,3.184 -8.89,5.196 -16.1,6.036 -7.22,0.835 -17.2,1.261 -29.94,1.261 -8.39,0 -15.27,-0.594 -20.63,-1.765 -5.38,-1.176 -9.99,-3.52 -13.84,-7.043 -3.86,-3.52 -7.29,-8.473 -10.31,-14.844 -3.02,-6.371 -6.21,-14.926 -9.56,-25.656 -3.37,-10.399 -7.05,-23.821 -11.07,-40.25 -4.03,-16.438 -7.98,-34.555 -11.83,-54.34 -3.86,-19.797 -7.55,-40.5 -11.07,-62.141 -3.52,-21.633 -6.62,-42.851 -9.3,-63.648 -2.02,-15.543 -3.65,-30.336 -5.09,-44.754 -11.4,-9.84 -22.84,-19.637 -34.66,-28.957 -15.09,-11.906 -30.02,-22.059 -44.78,-30.438 -14.76,-8.383 -28.17,-12.574 -40.25,-12.574 -10.4,0 -17.28,4.43 -20.63,13.332 -3.36,8.883 -5.03,20.879 -5.03,35.973 0,15.422 1.67,32.781 5.03,52.078 3.35,19.281 7.54,39.066 12.57,59.367 5.05,20.289 10.4,40.578 16.11,60.879 5.7,20.289 11.07,39.246 16.1,56.855 5.03,17.614 9.22,33.375 12.57,47.297 3.35,13.914 5.03,24.567 5.03,31.946 0,8.718 -2.5,15.679 -7.54,20.882 -5.03,5.196 -14.59,7.801 -28.68,7.801 -7.72,0 -16.34,-0.929 -25.91,-2.769 -9.55,-1.848 -18.78,-4.7 -27.67,-8.551 -8.89,-3.859 -16.86,-8.891 -23.9,-15.094 -7.05,-6.215 -11.75,-13.672 -14.09,-22.39 -6.04,-25.161 -12.998,-52.665 -20.88,-82.516 -7.883,-29.859 -15.34,-59.797 -22.383,-89.813 -7.043,-30.023 -13.012,-59.043 -17.864,-87.043 -4.121,-23.73 -6.394,-44.835 -7.023,-63.625 l -3.949,-17.339 c -6.906,-30.387 -36.863,-87.86 -100.77,-87.86 -79.457,0 -147.375,33.281 -219.285,68.512 -15.34,7.527 -31.066,15.23 -47.226,22.789 30.691,60.141 55.593,132.855 74.16,216.563 232.293,103.613 353.761,352.175 353.761,546.697 0,141.51 -64.613,229.41 -168.621,229.41 -165.66,0 -244.004,-153.53 -289.05,-566.334 -6.04,-52.539 -12.809,-107.719 -21.52,-157.59 -35.449,-9.183 -73.375,-13.836 -112.918,-13.836 -210.937,0 -285.785,112.324 -285.785,208.508 0,86.09 61.519,177.592 175.535,177.592 27.094,0 49.629,-6.033 70.91,-18.987 l 17.047,-10.375 56.422,115.712 -14.856,8.44 c -42.199,23.94 -78.226,33.27 -128.492,33.27 C 110.48,1130.32 0,980.152 0,834.969 0,693.492 105.961,528.281 404.582,528.281 c 31.371,0 62.453,2.321 92.746,6.907 -12.031,-51.536 -25.254,-94.782 -40.117,-131.176 -53.895,16.551 -109.043,24.617 -168.039,24.617 -118.817,0 -180.981,-71.348 -180.981,-141.828 0,-62.852 49.539,-130.492 158.313,-130.492 99.723,0 183.172,40.652 248.277,120.89 18.266,-9.429 36.496,-19.379 54.235,-29.058 82.668,-45.153 168.152,-91.832 268.324,-91.832 82.965,0 150.687,39.363 190.72,107.812 1.76,-0.051 3.42,-0.191 5.24,-0.191 19.46,0 40.01,3.519 61.64,10.57 21.64,7.039 42.85,15.852 63.65,26.41 19.03,9.672 36.72,20.289 53.37,31.649 0.09,-0.809 0.12,-1.661 0.22,-2.457 1.5,-12.582 4.52,-23.832 9.05,-33.723 4.52,-9.891 10.99,-17.777 19.37,-23.641 8.38,-5.879 19.45,-8.808 33.21,-8.808 10.73,0 20.54,2.429 29.43,7.3 8.89,4.86 16.69,14.161 23.4,27.918 23.14,46.622 42.01,85.454 56.61,116.485 14.58,31.019 26.57,56.262 35.97,75.722 9.39,19.45 16.68,34.208 21.89,44.278 5.19,10.058 9.8,17.605 13.82,22.637 l 7.56,0 c -5.38,-30.868 -9.9,-59.707 -13.59,-86.543 -1.68,-11.403 -3.35,-22.891 -5.03,-34.461 -1.69,-11.575 -3.19,-22.563 -4.53,-32.957 -1.35,-10.399 -2.35,-19.625 -3.01,-27.676 -0.68,-8.047 -1.01,-14.254 -1.01,-18.613 0,-10.399 0.58,-21.141 1.76,-32.2 1.17,-11.07 3.52,-21.218 7.05,-30.441 3.51,-9.231 8.46,-16.777 14.84,-22.641 6.36,-5.879 14.91,-8.808 25.65,-8.808 14.09,0 26.49,2.429 37.24,7.3 10.73,4.86 20.46,14.329 29.18,28.43 l 102.14,260.117 7.54,0 c -2.68,-24.144 -4.78,-48.047 -6.28,-71.695 -1.52,-23.644 -2.26,-46.035 -2.26,-67.172 0,-22.472 1.07,-43.269 3.26,-62.39 2.18,-19.11 5.79,-35.719 10.82,-49.809 5.03,-14.082 11.65,-25.07 19.88,-32.949 8.21,-7.891 18.36,-11.832 30.43,-11.832 24.48,0 46.46,3.281 65.91,9.82 19.45,6.539 37.31,14.922 53.59,25.148 16.26,10.231 31.7,21.641 46.29,34.211 5.82,5.02 11.71,9.672 17.56,14.551 4.41,-7.16 9.09,-14.101 14.39,-20.582 15.77,-19.297 35.48,-34.637 59.12,-46.039 23.65,-11.41 51.24,-17.109 82.76,-17.109 20.14,0 40.01,2.269 59.63,6.8 19.62,4.52 38.57,10.559 56.85,18.11 18.28,7.539 35.72,16.18 52.33,25.91 16.61,9.719 32.12,19.621 46.55,29.691 33.2,23.469 64.56,50.477 94.08,80.997 l -64.91,67.425"
         id="path3018"
         style="fill:#4e7f2e;fill-opacity:1;fill-rule:nonzero;stroke:none" /><path
         d="m 1123.37,823.973 c 17.11,0 31.77,2.597 44.03,7.8 12.24,5.2 22.39,11.985 30.44,20.379 8.05,8.379 13.91,17.938 17.6,28.676 3.7,10.731 5.54,21.805 5.54,33.207 0,12.406 -2.26,23.149 -6.79,32.203 -4.54,9.059 -10.66,16.356 -18.36,21.891 -7.73,5.531 -16.79,9.633 -27.18,12.32 -10.39,2.68 -21.46,4.024 -33.2,4.024 -18.79,0 -34.47,-2.934 -47.04,-8.801 -12.59,-5.871 -22.65,-13.078 -30.2,-21.637 -7.54,-8.555 -13,-17.695 -16.35,-27.422 -3.36,-9.73 -5.03,-18.449 -5.03,-26.16 0,-23.148 7.04,-41.683 21.13,-55.598 14.09,-13.921 35.89,-20.882 65.41,-20.882"
         id="path3020"
         style="fill:#ffffff;fill-opacity:1;fill-rule:nonzero;stroke:none" /><path
         d="m 1990.28,539.195 c 0.68,10.391 2.1,21.133 4.29,32.203 2.16,11.067 5.35,22.051 9.55,32.954 4.19,10.898 9.73,20.632 16.61,29.183 6.86,8.555 15.42,15.516 25.66,20.883 10.23,5.363 22.55,8.051 36.98,8.051 8.05,0 14.84,-4.867 20.37,-14.59 5.54,-9.738 8.3,-22.145 8.3,-37.234 0,-10.743 -4.19,-21.813 -12.57,-33.211 -8.39,-11.407 -18.7,-21.969 -30.94,-31.696 -12.26,-9.734 -25.5,-17.695 -39.75,-23.898 -14.27,-6.215 -27.43,-9.309 -39.5,-9.309 0,7.375 0.33,16.266 1,26.664 z M 279.902,254.25 c -41.535,0 -60.132,21.398 -60.132,42.609 0,27.653 27.574,57.039 78.679,57.039 38.231,0 76.25,-6.527 115.645,-19.898 -37.25,-53.621 -81.317,-79.75 -134.192,-79.75 z m 396.235,541.445 c 46.258,432.455 108.277,482.465 150.906,482.465 27.336,0 45.703,-46.52 45.703,-115.77 0,-116.66 -55.707,-322.472 -206.281,-442.874 3.601,23.742 7.047,49.332 9.672,76.179 z M 2300.72,504.984 c -13.08,-12.754 -29.01,-26.25 -47.79,-40.507 -18.79,-14.258 -38.75,-27.418 -59.88,-39.493 -21.13,-12.074 -42.85,-22.136 -65.16,-30.191 -22.3,-8.051 -43.51,-12.074 -63.65,-12.074 -6.37,0 -12.32,0.668 -17.85,2.011 -5.54,1.336 -10.82,3.688 -15.85,7.043 -5.03,3.352 -9.99,8.055 -14.84,14.094 -4.87,6.035 -9.82,13.582 -14.85,22.637 29.18,8.051 56.27,19.281 81.25,33.715 24.99,14.418 46.55,30.851 64.66,49.304 18.12,18.446 32.28,38.063 42.52,58.868 10.22,20.793 15.34,41.589 15.34,62.386 0,19.125 -3.35,36.395 -10.06,51.825 -6.71,15.425 -16.02,28.593 -27.93,39.5 -11.91,10.898 -25.91,19.375 -42.01,25.41 -16.1,6.039 -33.54,9.054 -52.32,9.054 -23.15,0 -44.2,-4.113 -63.15,-12.328 -18.95,-8.218 -36.06,-19.293 -51.31,-33.211 -15.27,-13.918 -28.61,-30.015 -40.01,-48.3 -11.4,-18.282 -20.87,-37.481 -28.42,-57.606 -7.56,-20.129 -13.17,-40.68 -16.86,-61.637 -3.69,-20.968 -5.54,-40.836 -5.54,-59.621 0,-12.675 0.93,-25.05 2.56,-37.203 -0.18,-0.172 -0.37,-0.359 -0.55,-0.527 -7.04,-6.719 -14.42,-13.172 -22.13,-19.375 -7.72,-6.211 -15.6,-11.66 -23.65,-16.352 -8.05,-4.707 -15.94,-8.551 -23.64,-11.57 -7.73,-3.023 -15.11,-4.535 -22.15,-4.535 -6.71,0 -12.41,5.699 -17.11,17.109 -4.69,11.403 -7.04,26.16 -7.04,44.278 0,23.144 1.17,45.031 3.53,65.664 2.33,20.625 5.03,41.003 8.05,61.125 3.02,20.128 5.69,40.586 8.05,61.386 2.34,20.793 3.51,42.766 3.51,65.91 0,15.094 -5.45,26.747 -16.34,34.969 -10.91,8.215 -24.25,12.328 -40,12.328 -14.09,0 -26.01,-4.617 -35.73,-13.84 -9.73,-9.226 -19.46,-20.546 -29.17,-33.96 -10.08,-13.758 -20.89,-29.684 -32.46,-47.797 -11.58,-18.11 -22.48,-35.391 -32.71,-51.825 -10.24,-16.441 -18.87,-30.437 -25.91,-42.015 -7.04,-11.57 -10.9,-17.856 -11.58,-18.863 l -5.53,6.039 c 0,0.668 0.17,2.011 0.5,4.023 0.33,2.012 1.34,6.871 3.02,14.59 2.34,11.066 4.87,21.887 7.55,32.453 2.69,10.563 5.28,21.383 7.8,32.449 2.51,11.074 4.61,22.473 6.29,34.219 1.68,11.734 2.52,24.152 2.52,37.23 0,15.094 -5.03,26.747 -15.09,34.969 -10.08,8.215 -22.15,12.328 -36.24,12.328 -15.09,0 -28.09,-4.527 -38.99,-13.582 -10.9,-9.062 -21.21,-20.468 -30.94,-34.218 -10.06,-13.758 -20.63,-29.602 -31.7,-47.547 -11.07,-17.946 -21.38,-35.141 -30.94,-51.571 -9.57,-16.441 -17.62,-30.527 -24.15,-42.265 -6.55,-11.742 -10.16,-18.11 -10.82,-19.117 l -5.54,6.039 c 3.35,21.129 6.55,41.582 9.57,61.382 1.33,8.379 2.59,17.02 3.77,25.911 1.17,8.882 2.26,17.523 3.27,25.91 1,8.383 1.76,16.265 2.26,23.652 0.51,7.367 0.76,13.914 0.76,19.621 0,10.391 -0.33,18.613 -1.01,24.649 -0.67,6.043 -2.77,10.648 -6.28,13.839 -3.53,3.184 -8.89,5.196 -16.1,6.036 -7.22,0.836 -17.2,1.261 -29.94,1.261 -8.39,0 -15.27,-0.593 -20.63,-1.765 -5.38,-1.176 -9.99,-3.52 -13.84,-7.043 -3.86,-3.52 -7.29,-8.473 -10.31,-14.844 -3.02,-6.371 -6.21,-14.926 -9.56,-25.656 -3.37,-10.399 -7.05,-23.821 -11.07,-40.25 -4.03,-16.438 -7.98,-34.555 -11.83,-54.34 -3.86,-19.801 -7.55,-40.5 -11.07,-62.141 -3.52,-21.633 -6.62,-42.851 -9.3,-63.648 -2.02,-15.543 -3.65,-30.336 -5.09,-44.75 -11.4,-9.844 -22.84,-19.641 -34.66,-28.961 -15.09,-11.906 -30.02,-22.059 -44.78,-30.438 -14.76,-8.386 -28.17,-12.578 -40.25,-12.578 -10.4,0 -17.28,4.442 -20.63,13.336 -3.36,8.883 -5.03,20.879 -5.03,35.973 0,15.422 1.67,32.781 5.03,52.078 3.35,19.281 7.54,39.066 12.57,59.367 5.05,20.289 10.4,40.578 16.11,60.879 5.7,20.289 11.07,39.246 16.1,56.856 5.03,17.613 9.22,33.375 12.57,47.296 3.35,13.914 5.03,24.567 5.03,31.95 0,8.714 -2.5,15.675 -7.54,20.879 -5.03,5.195 -14.59,7.8 -28.68,7.8 -7.72,0 -16.34,-0.929 -25.91,-2.769 -9.55,-1.848 -18.78,-4.699 -27.67,-8.551 -8.89,-3.859 -16.86,-8.891 -23.9,-15.094 -7.05,-6.215 -11.75,-13.672 -14.09,-22.39 -6.04,-25.161 -12.998,-52.664 -20.88,-82.516 -7.883,-29.859 -15.34,-59.797 -22.383,-89.812 -7.043,-30.024 -13.012,-59.043 -17.864,-87.043 -4.121,-23.731 -6.394,-44.836 -7.023,-63.625 l -3.949,-17.34 c -6.906,-30.391 -36.863,-87.86 -100.77,-87.86 -79.457,0 -147.375,33.282 -219.285,68.52 -15.34,7.519 -31.066,15.219 -47.226,22.777 30.691,60.145 55.593,132.86 74.16,216.567 232.293,103.613 353.761,352.175 353.761,546.696 0,141.51 -64.613,229.41 -168.621,229.41 -165.66,0 -244.004,-153.52 -289.05,-566.333 -6.04,-52.539 -12.809,-107.719 -21.52,-157.59 -35.449,-9.183 -73.375,-13.836 -112.918,-13.836 -210.937,0 -285.785,112.324 -285.785,208.504 0,86.094 61.519,177.595 175.535,177.595 27.094,0 49.629,-6.03 70.91,-18.985 l 17.047,-10.375 56.422,115.71 -14.856,8.44 c -42.199,23.94 -78.226,33.28 -128.492,33.28 C 110.48,1142.45 0,992.273 0,847.09 0,705.613 105.961,540.402 404.582,540.402 c 31.371,0 62.453,2.321 92.746,6.907 -12.031,-51.536 -25.254,-94.782 -40.117,-131.172 -53.895,16.547 -109.043,24.613 -168.039,24.613 -118.817,0 -180.981,-71.348 -180.981,-141.828 0,-62.852 49.539,-130.492 158.313,-130.492 99.723,0 183.172,40.652 248.277,120.89 18.266,-9.429 36.496,-19.379 54.235,-29.058 82.668,-45.153 168.152,-91.832 268.324,-91.832 82.965,0 150.687,39.359 190.72,107.808 1.76,-0.047 3.42,-0.187 5.24,-0.187 19.46,0 40.01,3.519 61.64,10.57 21.64,7.039 42.85,15.848 63.65,26.41 19.03,9.668 36.72,20.289 53.37,31.649 0.09,-0.809 0.12,-1.66 0.22,-2.461 1.5,-12.578 4.52,-23.828 9.05,-33.719 4.52,-9.891 10.99,-17.77 19.37,-23.641 8.38,-5.879 19.45,-8.808 33.21,-8.808 10.73,0 20.54,2.429 29.43,7.301 8.89,4.859 16.69,14.16 23.4,27.918 23.14,46.621 42.01,85.453 56.61,116.484 14.58,31.019 26.57,56.262 35.97,75.723 9.39,19.449 16.68,34.207 21.89,44.277 5.19,10.059 9.8,17.605 13.82,22.637 l 7.56,0 c -5.38,-30.864 -9.9,-59.707 -13.59,-86.543 -1.68,-11.403 -3.35,-22.891 -5.03,-34.461 -1.69,-11.571 -3.19,-22.563 -4.53,-32.957 -1.35,-10.399 -2.35,-19.625 -3.01,-27.676 -0.68,-8.047 -1.01,-14.258 -1.01,-18.613 0,-10.403 0.58,-21.129 1.76,-32.2 1.17,-11.07 3.52,-21.222 7.05,-30.441 3.51,-9.23 8.46,-16.77 14.84,-22.641 6.36,-5.879 14.91,-8.808 25.65,-8.808 14.09,0 26.49,2.429 37.24,7.301 10.73,4.859 20.46,14.339 29.18,28.429 l 102.14,260.117 7.54,0 c -2.68,-24.144 -4.78,-48.046 -6.28,-71.695 -1.52,-23.644 -2.26,-46.035 -2.26,-67.172 0,-22.472 1.07,-43.269 3.26,-62.386 2.18,-19.114 5.79,-35.723 10.82,-49.817 5.03,-14.078 11.65,-25.066 19.88,-32.949 8.21,-7.891 18.36,-11.828 30.43,-11.828 24.48,0 46.46,3.281 65.91,9.82 19.45,6.539 37.31,14.918 53.59,25.149 16.26,10.23 31.7,21.64 46.29,34.218 5.82,5.012 11.71,9.66 17.56,14.543 4.41,-7.16 9.09,-14.101 14.39,-20.582 15.77,-19.301 35.48,-34.64 59.12,-46.039 23.65,-11.41 51.24,-17.109 82.76,-17.109 20.14,0 40.01,2.269 59.63,6.801 19.62,4.527 38.57,10.558 56.85,18.109 18.28,7.539 35.72,16.18 52.33,25.91 16.61,9.719 32.12,19.617 46.55,29.688 33.2,23.472 64.56,50.48 94.08,81 l -64.91,67.425"
         id="path3022"
         style="fill:#ffffff;fill-opacity:1;fill-rule:nonzero;stroke:none" /><g
         transform="scale(10,10)"
         id="g3024"><text
           transform="matrix(1,0,0,-1,107.95,5.86914)"
           id="text3026"><tspan
             x="0 12.414604 23.938005"
             y="0"
             id="tspan3028"
             style="font-size:19.59679985px;font-variant:normal;font-weight:900;writing-mode:lr-tb;fill:#ffffff;fill-opacity:1;fill-rule:nonzero;stroke:none;font-family:Lato;-inkscape-font-specification:Lato-Black">by </tspan></text>
</g><g
         id="g3030"><g
           clip-path="url(#clipPath3034)"
           id="g3032"><path
             d="m 1372.01,160.309 13.77,-47.36 c 2.5,-8.758 4.17,-16.6873 5.84,-24.8201 l 0.62,0 c 1.67,8.3399 3.34,16.0621 5.64,24.8201 l 13.14,47.36 33.38,0 -37.97,-102.0082 -31.71,0 -37.13,102.0082 34.42,0"
             id="path3038"
             style="fill:#5d5c5f;fill-opacity:1;fill-rule:nonzero;stroke:none" /><path
             d="m 1459,58.3008 31.7109,0 0,102.008 -31.7109,0 0,-102.008 z"
             id="path3040"
             style="fill:#5d5c5f;fill-opacity:1;fill-rule:nonzero;stroke:none" /><path
             d="m 1516.16,126.09 c 0,13.351 -0.42,24.621 -0.84,34.219 l 27.54,0 1.46,-14.188 0.41,0 c 7.51,10.641 19.2,16.481 34.01,16.481 22.32,0 42.34,-19.403 42.34,-51.954 0,-37.1285 -23.57,-54.648 -46.31,-54.648 -12.3,0 -21.9,5.0117 -26.49,11.6797 l -0.42,0 0,-50.6914 -31.7,0 0,109.1017 m 31.7,-23.988 c 0,-2.5004 0.21,-4.5903 0.63,-6.6723 2.09,-8.5586 9.39,-15.0195 18.57,-15.0195 13.76,0 21.9,11.4687 21.9,28.7888 0,16.27 -7.3,28.571 -21.49,28.571 -8.97,0 -16.89,-6.668 -18.98,-16.059 -0.42,-1.672 -0.63,-3.75 -0.63,-5.629 l 0,-13.98"
             id="path3042"
             style="fill:#5d5c5f;fill-opacity:1;fill-rule:nonzero;stroke:none" /><path
             d="m 1725.8,82.9102 c 0,-9.6016 0.42,-18.9805 1.67,-24.6094 l -28.58,0 -1.87,10.2187 -0.63,0 C 1689.72,60.3789 1679.28,56 1667.18,56 c -20.65,0 -32.95,15.0195 -32.95,31.2891 0,26.4999 23.78,39.0119 59.87,39.0119 l 0,1.25 c 0,5.64 -2.92,13.347 -18.57,13.347 -10.43,0 -21.49,-3.539 -28.16,-7.707 l -5.84,20.438 c 7.09,3.961 21.07,9.18 39.63,9.18 34,0 44.64,-20.028 44.64,-44.227 l 0,-35.6718 m -30.66,23.5698 c -16.69,0 -29.62,-3.96 -29.62,-16.0581 0,-8.1406 5.42,-12.1016 12.51,-12.1016 7.72,0 14.4,5.2188 16.48,11.6797 0.42,1.6719 0.63,3.5508 0.63,5.4297 l 0,11.0503"
             id="path3044"
             style="fill:#5d5c5f;fill-opacity:1;fill-rule:nonzero;stroke:none" /><path
             d="m 1835.95,82.9102 c 0,-9.6016 0.42,-18.9805 1.67,-24.6094 l -28.58,0 -1.88,10.2187 -0.63,0 C 1799.86,60.3789 1789.43,56 1777.33,56 c -20.65,0 -32.96,15.0195 -32.96,31.2891 0,26.4999 23.78,39.0119 59.87,39.0119 l 0,1.25 c 0,5.64 -2.92,13.347 -18.57,13.347 -10.43,0 -21.48,-3.539 -28.16,-7.707 l -5.84,20.438 c 7.09,3.961 21.07,9.18 39.64,9.18 34,0 44.64,-20.028 44.64,-44.227 l 0,-35.6718 m -30.67,23.5698 c -16.68,0 -29.62,-3.96 -29.62,-16.0581 0,-8.1406 5.43,-12.1016 12.52,-12.1016 7.72,0 14.39,5.2188 16.48,11.6797 0.41,1.6719 0.62,3.5508 0.62,5.4297 l 0,11.0503"
             id="path3046"
             style="fill:#5d5c5f;fill-opacity:1;fill-rule:nonzero;stroke:none" /><path
             d="m 1861.19,126.719 c 0,15.019 -0.21,24.82 -0.83,33.59 l 27.12,0 1.25,-18.778 0.83,0 c 5.22,15.02 17.52,21.278 27.54,21.278 2.92,0 4.38,-0.207 6.67,-0.629 l 0,-29.828 c -2.5,0.418 -5,0.839 -8.55,0.839 -11.68,0 -19.61,-6.261 -21.69,-16.07 -0.42,-2.082 -0.63,-4.59 -0.63,-7.09 l 0,-51.7302 -31.71,0 0,68.4182"
             id="path3048"
             style="fill:#5d5c5f;fill-opacity:1;fill-rule:nonzero;stroke:none" /></g></g><g
         id="g3050"><g
           clip-path="url(#clipPath3054)"
           id="g3052"><path
             d="m 1493.87,202.309 c 0,-10.348 -8.39,-18.75 -18.74,-18.75 -10.36,0 -18.75,8.39 -18.75,18.75 0,10.351 8.39,18.742 18.75,18.742 10.35,0 18.74,-8.391 18.74,-18.742"
             id="path3058"
             style="fill:#f58114;fill-opacity:1;fill-rule:nonzero;stroke:none" /></g></g><g
         id="g3060"><g
           clip-path="url(#clipPath3064)"
           id="g3062"><path
             d="m 1521.74,201.91 c 0.21,8.371 -3.36,16.578 -15.6,18.481 -7.87,1.218 -1.52,-3.832 -1.52,-3.832 0,0 10.55,-5.399 10.23,-14.61 -0.31,-9.199 -10.28,-14.64 -10.28,-14.64 0,0 -6.35,-5.059 1.53,-3.84 11.86,1.851 15.43,10.07 15.64,18.441"
             id="path3068"
             style="fill:#f58114;fill-opacity:1;fill-rule:nonzero;stroke:none" /></g></g><g
         id="g3070"><g
           clip-path="url(#clipPath3074)"
           id="g3072"><path
             d="m 1551.38,201.91 c 0.21,8.371 -3.37,16.578 -15.6,18.481 -7.88,1.218 -1.53,-3.832 -1.53,-3.832 0,0 10.55,-5.399 10.24,-14.61 -0.32,-9.199 -10.28,-14.64 -10.28,-14.64 0,0 -6.35,-5.059 1.53,-3.84 11.85,1.851 15.42,10.07 15.64,18.441"
             id="path3078"
             style="fill:#f58114;fill-opacity:1;fill-rule:nonzero;stroke:none" /></g></g><g
         id="g3080"><g
           clip-path="url(#clipPath3084)"
           id="g3082"><path
             d="m 1580.29,201.91 c 0.22,8.371 -3.36,16.578 -15.59,18.481 -7.88,1.218 -1.53,-3.832 -1.53,-3.832 0,0 10.55,-5.399 10.24,-14.61 -0.32,-9.199 -10.28,-14.64 -10.28,-14.64 0,0 -6.35,-5.059 1.52,-3.84 11.86,1.851 15.43,10.07 15.64,18.441"
             id="path3088"
             style="fill:#f58114;fill-opacity:1;fill-rule:nonzero;stroke:none" /></g></g><g
         id="g3090"><g
           clip-path="url(#clipPath3094)"
           id="g3092"><path
             d="m 1604.76,201.91 c 0.22,8.371 -3.36,16.578 -15.59,18.481 -7.88,1.218 -1.53,-3.832 -1.53,-3.832 0,0 10.55,-5.399 10.24,-14.61 -0.32,-9.199 -10.28,-14.64 -10.28,-14.64 0,0 -6.35,-5.059 1.52,-3.84 11.86,1.851 15.43,10.07 15.64,18.441"
             id="path3098"
             style="fill:#f58114;fill-opacity:1;fill-rule:nonzero;stroke:none" /></g></g><g
         id="g3100"><g
           clip-path="url(#clipPath3104)"
           id="g3102"><path
             d="m 1632.83,201.91 c 0.22,8.371 -3.36,16.578 -15.59,18.481 -7.88,1.218 -1.53,-3.832 -1.53,-3.832 0,0 10.55,-5.399 10.24,-14.61 -0.32,-9.199 -10.28,-14.64 -10.28,-14.64 0,0 -6.35,-5.059 1.52,-3.84 11.86,1.851 15.43,10.07 15.64,18.441"
             id="path3108"
             style="fill:#f58114;fill-opacity:1;fill-rule:nonzero;stroke:none" /></g></g></g></g></svg>