<?xml version="1.0" encoding="UTF-8" standalone="no"?>
<!-- Created with Inkscape (http://www.inkscape.org/) -->

<svg
   xmlns:dc="http://purl.org/dc/elements/1.1/"
   xmlns:cc="http://creativecommons.org/ns#"
   xmlns:rdf="http://www.w3.org/1999/02/22-rdf-syntax-ns#"
   xmlns:svg="http://www.w3.org/2000/svg"
   xmlns="http://www.w3.org/2000/svg"
   version="1.1"
   width="629.36627"
   height="219.11226"
   id="svg3004"
   xml:space="preserve"><metadata
     id="metadata3010"><rdf:RDF><cc:Work
         rdf:about=""><dc:format>image/svg+xml</dc:format><dc:type
           rdf:resource="http://purl.org/dc/dcmitype/StillImage" /><dc:title></dc:title></cc:Work></rdf:RDF></metadata><defs
     id="defs3008"><clipPath
       id="clipPath3020"><path
         d="m 0,0 7437,0 0,5666.76 -7437,0 L 0,0 z"
         id="path3022" /></clipPath><clipPath
       id="clipPath3030"><path
         d="M 1070.16,0 C 500.082,0 37.957,31.4805 37.957,70.3008 c 0,15.1914 70.66,29.2383 190.781,40.7382 4.2,-5.18 8.719,-10.078 13.532,-14.6874 29.55,-28.3321 70.312,-45.75 115.058,-45.7422 l 943.932,0 5.3,0.7109 c 76.92,21.082 145.55,49.2187 206.71,82.4997 348.34,-11.3 589.08,-35.488 589.08,-63.5192 C 2102.35,31.4805 1640.22,0 1070.16,0"
         id="path3032" /></clipPath><clipPath
       id="clipPath3042"><path
         d="m 0,0 0,5667 7437,0 L 7437,0 0,0 z"
         id="path3044" /></clipPath><clipPath
       id="clipPath3052"><path
         d="m 281.32,115.648 c -3.988,2.981 -7.773,6.192 -11.34,9.614 -22.238,21.359 -35.734,50.386 -35.75,82.539 l 0,906.529 c 35.176,104.28 93.336,225.27 188.84,332.18 24.032,26.88 50.403,52.89 79.391,77.55 C 516.523,1306.78 1582.48,448.449 1714.91,342.609 1642,262.172 1548.39,189.371 1427.36,136.281 c -111.31,2.801 -231.63,4.328 -357.2,4.328 -316.39,0 -599.5,-9.699 -788.84,-24.961"
         id="path3054" /></clipPath><clipPath
       id="clipPath3064"><path
         d="m 1298.54,90.6484 -941.212,0 c -28.801,0 -55.133,9.3826 -76.008,24.9996 189.34,15.262 472.45,24.961 788.84,24.961 125.57,0 245.89,-1.527 357.2,-4.328 -39.88,-17.492 -82.74,-32.851 -128.82,-45.6326"
         id="path3066" /></clipPath><clipPath
       id="clipPath3076"><path
         d="m 1301.26,70.6289 -943.932,0 c -79.047,0 -143.117,61.4101 -143.117,137.1721 l 0,909.799 c 71.398,213.68 237.797,499.23 623.832,599.21 l 950.407,0 0,-9.87 c -3.72,0.27 -7.48,0.42 -11.27,0.42 l -950.41,0 C 702.199,1675.1 600.496,1623.5 517.48,1561.24 c -11.328,-8.49 -16.062,-21.07 -15.019,-37.18 -28.988,-24.66 -55.359,-50.67 -79.391,-77.55 -95.504,-106.91 -153.664,-227.9 -188.84,-332.18 l 0,-906.529 c 0.016,-32.153 13.512,-61.18 35.75,-82.539 3.567,-3.422 7.352,-6.633 11.34,-9.614 20.875,-15.617 47.207,-24.9996 76.008,-24.9996 l 941.212,0 c 46.08,12.7816 88.94,28.1406 128.82,45.6326 121.03,53.09 214.64,125.891 287.55,206.328 8.78,-7.007 13.44,-10.711 13.44,-10.711 32.13,39.211 56.86,68.774 76.09,91.813 C 1702.93,276.23 1545.42,137.609 1301.26,70.6289 m 590.69,508.9101 c 6.07,21.781 14.61,50.652 28.34,91.043 l 0,899.598 c 0,72.12 -58.07,131.24 -131.84,136.76 l 0,9.87 c 79.04,0 143.12,-61.43 143.12,-137.19 l 0,-899.589 c -10.95,-32.219 -24.02,-65.98 -39.62,-100.492 m 39.62,100.492 0,0"
         id="path3078" /></clipPath><clipPath
       id="clipPath3088"><path
         d="m 0,0 0,5667 7437,0 L 7437,0 0,0 z"
         id="path3090" /></clipPath><clipPath
       id="clipPath3100"><path
         d="m 1804.44,423.711 c 35.62,51.75 64.34,104.601 87.51,155.828 -21.06,-75.547 -12.41,-65.879 -87.51,-155.828"
         id="path3102" /></clipPath><clipPath
       id="clipPath3112"><path
         d="M 1714.91,342.609 C 1582.48,448.449 516.523,1306.78 502.461,1524.06 c 86.902,73.96 197.258,135.81 338.144,172.73 l 947.845,0 0,10.15 0,0 0,-10.15 c 34.3,-0.01 65.09,-13.3 87.35,-34.62 22.24,-21.36 35.73,-50.39 35.75,-82.55 l 0,-896.261 C 1875.31,577.75 1815.93,455.77 1719.22,347.41 c -1.43,-1.609 -2.86,-3.199 -4.31,-4.801"
         id="path3114" /></clipPath><clipPath
       id="clipPath3124"><path
         d="m 1728.35,331.898 c 0,0 -4.66,3.704 -13.44,10.711 1.45,1.602 2.88,3.192 4.31,4.801 96.71,108.36 156.09,230.34 192.33,335.949 l 0,896.261 c -0.02,32.16 -13.51,61.19 -35.75,82.55 -22.26,21.32 -53.05,34.61 -87.35,34.62 l 0,10.15 c 73.77,-5.52 131.84,-64.64 131.84,-136.76 l 0,-899.598 c -13.73,-40.391 -22.27,-69.262 -28.34,-91.043 -23.17,-51.227 -51.89,-104.078 -87.51,-155.828 -19.23,-23.039 -43.96,-52.602 -76.09,-91.813 M 502.461,1524.06 c -1.043,16.11 3.691,28.69 15.019,37.18 83.016,62.26 184.719,113.86 309.29,146.12 l 950.41,0 c 3.79,0 7.55,-0.15 11.27,-0.42 l 0,-10.15 -947.845,0 C 699.719,1659.87 589.363,1598.02 502.461,1524.06"
         id="path3126" /></clipPath><clipPath
       id="clipPath3136"><path
         d="m 0,0 0,5667 7437,0 L 7437,0 0,0 z"
         id="path3138" /></clipPath><clipPath
       id="clipPath3160"><path
         d="m 3744.52,1679.81 c 0,-88.94 -72.1,-161.03 -161.02,-161.03 -88.93,0 -161.03,72.09 -161.03,161.03 0,88.92 72.1,161.01 161.03,161.01 88.92,0 161.02,-72.09 161.02,-161.01 z"
         id="path3162" /></clipPath><radialGradient
       cx="0"
       cy="0"
       r="1"
       fx="0"
       fy="0"
       id="radialGradient3164"
       gradientUnits="userSpaceOnUse"
       gradientTransform="matrix(27.3641,0,0,-27.3641,351.941,177.001)"
       spreadMethod="pad"><stop
         id="stop3166"
         style="stop-color:#fbc008;stop-opacity:1"
         offset="0" /><stop
         id="stop3168"
         style="stop-color:#f68c11;stop-opacity:1"
         offset="0.53374201" /><stop
         id="stop3170"
         style="stop-color:#f68c11;stop-opacity:1"
         offset="1" /></radialGradient><clipPath
       id="clipPath3178"><path
         d="m 3983.93,1676.38 c 1.81,71.88 -28.9,142.41 -133.99,158.75 -67.67,10.51 -13.12,-32.91 -13.12,-32.91 0,0 90.65,-46.39 87.94,-125.46 -2.72,-79.05 -88.3,-125.83 -88.3,-125.83 0,0 -54.57,-43.44 13.11,-32.93 101.87,15.84 132.53,86.47 134.36,158.38 z"
         id="path3180" /></clipPath><linearGradient
       x1="0"
       y1="0"
       x2="1"
       y2="0"
       id="linearGradient3182"
       gradientUnits="userSpaceOnUse"
       gradientTransform="matrix(-11.4944,-28.4481,-24.1419,13.5447,392.883,180.605)"
       spreadMethod="pad"><stop
         id="stop3184"
         style="stop-color:#fbc008;stop-opacity:1"
         offset="0" /><stop
         id="stop3186"
         style="stop-color:#f68c11;stop-opacity:1"
         offset="0.53374201" /><stop
         id="stop3188"
         style="stop-color:#f68c11;stop-opacity:1"
         offset="1" /></linearGradient><clipPath
       id="clipPath3196"><path
         d="m 4238.49,1676.38 c 1.82,71.88 -28.88,142.41 -133.99,158.75 -67.67,10.51 -13.11,-32.91 -13.11,-32.91 0,0 90.65,-46.39 87.93,-125.46 -2.71,-79.05 -88.29,-125.83 -88.29,-125.83 0,0 -54.57,-43.44 13.11,-32.93 101.87,15.84 132.53,86.47 134.35,158.38 z"
         id="path3198" /></clipPath><linearGradient
       x1="0"
       y1="0"
       x2="1"
       y2="0"
       id="linearGradient3200"
       gradientUnits="userSpaceOnUse"
       gradientTransform="matrix(-11.4947,-28.4487,-24.1425,13.545,418.34,180.605)"
       spreadMethod="pad"><stop
         id="stop3202"
         style="stop-color:#fbc008;stop-opacity:1"
         offset="0" /><stop
         id="stop3204"
         style="stop-color:#f68c11;stop-opacity:1"
         offset="0.53374201" /><stop
         id="stop3206"
         style="stop-color:#f68c11;stop-opacity:1"
         offset="1" /></linearGradient><clipPath
       id="clipPath3214"><path
         d="m 4486.9,1676.38 c 1.82,71.88 -28.87,142.41 -133.99,158.75 -67.68,10.51 -13.11,-32.91 -13.11,-32.91 0,0 90.66,-46.39 87.93,-125.46 -2.71,-79.05 -88.29,-125.83 -88.29,-125.83 0,0 -54.57,-43.44 13.11,-32.93 101.87,15.84 132.55,86.47 134.35,158.38 z"
         id="path3216" /></clipPath><linearGradient
       x1="0"
       y1="0"
       x2="1"
       y2="0"
       id="linearGradient3218"
       gradientUnits="userSpaceOnUse"
       gradientTransform="matrix(-11.4944,-28.4481,-24.1419,13.5447,443.181,180.605)"
       spreadMethod="pad"><stop
         id="stop3220"
         style="stop-color:#fbc008;stop-opacity:1"
         offset="0" /><stop
         id="stop3222"
         style="stop-color:#f68c11;stop-opacity:1"
         offset="0.53374201" /><stop
         id="stop3224"
         style="stop-color:#f68c11;stop-opacity:1"
         offset="1" /></linearGradient><clipPath
       id="clipPath3232"><path
         d="m 4697.1,1676.38 c 1.81,71.88 -28.89,142.41 -134,158.75 -67.67,10.51 -13.11,-32.91 -13.11,-32.91 0,0 90.65,-46.39 87.94,-125.46 -2.72,-79.05 -88.3,-125.83 -88.3,-125.83 0,0 -54.56,-43.44 13.1,-32.93 101.88,15.84 132.55,86.47 134.37,158.38 z"
         id="path3234" /></clipPath><linearGradient
       x1="0"
       y1="0"
       x2="1"
       y2="0"
       id="linearGradient3236"
       gradientUnits="userSpaceOnUse"
       gradientTransform="matrix(-11.4946,-28.4484,-24.1422,13.5448,464.2,180.605)"
       spreadMethod="pad"><stop
         id="stop3238"
         style="stop-color:#fbc008;stop-opacity:1"
         offset="0" /><stop
         id="stop3240"
         style="stop-color:#f68c11;stop-opacity:1"
         offset="0.53374201" /><stop
         id="stop3242"
         style="stop-color:#f68c11;stop-opacity:1"
         offset="1" /></linearGradient><clipPath
       id="clipPath3250"><path
         d="m 4938.22,1676.38 c 1.82,71.88 -28.88,142.41 -133.99,158.75 -67.68,10.51 -13.11,-32.91 -13.11,-32.91 0,0 90.66,-46.39 87.93,-125.46 -2.71,-79.05 -88.3,-125.83 -88.3,-125.83 0,0 -54.55,-43.44 13.12,-32.93 101.87,15.84 132.54,86.47 134.35,158.38 z"
         id="path3252" /></clipPath><linearGradient
       x1="0"
       y1="0"
       x2="1"
       y2="0"
       id="linearGradient3254"
       gradientUnits="userSpaceOnUse"
       gradientTransform="matrix(-11.4944,-28.4481,-24.1419,13.5447,488.312,180.605)"
       spreadMethod="pad"><stop
         id="stop3256"
         style="stop-color:#fbc008;stop-opacity:1"
         offset="0" /><stop
         id="stop3258"
         style="stop-color:#f68c11;stop-opacity:1"
         offset="0.53374201" /><stop
         id="stop3260"
         style="stop-color:#f68c11;stop-opacity:1"
         offset="1" /></linearGradient><clipPath
       id="clipPath3268"><path
         d="m 0,0 0,5667 7437,0 L 7437,0 0,0 z"
         id="path3270" /></clipPath><clipPath
       id="clipPath3288"><path
         d="m 1336.63,5124.89 c 0,-75.57 -61.28,-136.85 -136.85,-136.85 -75.59,0 -136.86,61.28 -136.86,136.85 0,75.59 61.27,136.86 136.86,136.86 75.57,0 136.85,-61.27 136.85,-136.86 z"
         id="path3290" /></clipPath><radialGradient
       cx="0"
       cy="0"
       r="1"
       fx="0"
       fy="0"
       id="radialGradient3292"
       gradientUnits="userSpaceOnUse"
       gradientTransform="matrix(23.2567,0,0,-23.2567,114.531,520.156)"
       spreadMethod="pad"><stop
         id="stop3294"
         style="stop-color:#fbc008;stop-opacity:1"
         offset="0" /><stop
         id="stop3296"
         style="stop-color:#f68c11;stop-opacity:1"
         offset="0.53374201" /><stop
         id="stop3298"
         style="stop-color:#f68c11;stop-opacity:1"
         offset="1" /></radialGradient><clipPath
       id="clipPath3306"><path
         d="m 1540.11,5121.98 c 1.55,61.11 -24.55,121.05 -113.88,134.93 -57.52,8.94 -11.15,-27.98 -11.15,-27.98 0,0 77.05,-39.42 74.74,-106.61 -2.31,-67.2 -75.05,-106.96 -75.05,-106.96 0,0 -46.37,-36.92 11.15,-27.98 86.58,13.46 112.64,73.48 114.19,134.6 z"
         id="path3308" /></clipPath><linearGradient
       x1="0"
       y1="0"
       x2="1"
       y2="0"
       id="linearGradient3310"
       gradientUnits="userSpaceOnUse"
       gradientTransform="matrix(-9.76943,-24.1788,-20.5189,11.512,149.328,523.219)"
       spreadMethod="pad"><stop
         id="stop3312"
         style="stop-color:#fbc008;stop-opacity:1"
         offset="0" /><stop
         id="stop3314"
         style="stop-color:#f68c11;stop-opacity:1"
         offset="0.53374201" /><stop
         id="stop3316"
         style="stop-color:#f68c11;stop-opacity:1"
         offset="1" /></linearGradient><clipPath
       id="clipPath3324"><path
         d="m 1756.47,5121.98 c 1.56,61.11 -24.55,121.05 -113.88,134.93 -57.52,8.94 -11.13,-27.98 -11.13,-27.98 0,0 77.04,-39.42 74.73,-106.61 -2.31,-67.2 -75.06,-106.96 -75.06,-106.96 0,0 -46.36,-36.92 11.16,-27.98 86.57,13.46 112.63,73.48 114.18,134.6 z"
         id="path3326" /></clipPath><linearGradient
       x1="0"
       y1="0"
       x2="1"
       y2="0"
       id="linearGradient3328"
       gradientUnits="userSpaceOnUse"
       gradientTransform="matrix(-9.76956,-24.1791,-20.5192,11.5121,170.965,523.22)"
       spreadMethod="pad"><stop
         id="stop3330"
         style="stop-color:#fbc008;stop-opacity:1"
         offset="0" /><stop
         id="stop3332"
         style="stop-color:#f68c11;stop-opacity:1"
         offset="0.53374201" /><stop
         id="stop3334"
         style="stop-color:#f68c11;stop-opacity:1"
         offset="1" /></linearGradient><clipPath
       id="clipPath3342"><path
         d="m 1967.61,5121.98 c 1.55,61.11 -24.55,121.05 -113.89,134.93 -57.51,8.94 -11.14,-27.98 -11.14,-27.98 0,0 77.05,-39.42 74.74,-106.61 -2.3,-67.2 -75.05,-106.96 -75.05,-106.96 0,0 -46.37,-36.92 11.15,-27.98 86.58,13.46 112.64,73.48 114.19,134.6 z"
         id="path3344" /></clipPath><linearGradient
       x1="0"
       y1="0"
       x2="1"
       y2="0"
       id="linearGradient3346"
       gradientUnits="userSpaceOnUse"
       gradientTransform="matrix(-9.76956,-24.1791,-20.5192,11.5121,192.078,523.22)"
       spreadMethod="pad"><stop
         id="stop3348"
         style="stop-color:#fbc008;stop-opacity:1"
         offset="0" /><stop
         id="stop3350"
         style="stop-color:#f68c11;stop-opacity:1"
         offset="0.53374201" /><stop
         id="stop3352"
         style="stop-color:#f68c11;stop-opacity:1"
         offset="1" /></linearGradient><clipPath
       id="clipPath3360"><path
         d="m 2146.26,5121.98 c 1.54,61.11 -24.56,121.05 -113.89,134.93 -57.52,8.94 -11.14,-27.98 -11.14,-27.98 0,0 77.06,-39.42 74.75,-106.61 -2.32,-67.2 -75.06,-106.96 -75.06,-106.96 0,0 -46.36,-36.92 11.14,-27.98 86.59,13.46 112.65,73.48 114.2,134.6 z"
         id="path3362" /></clipPath><linearGradient
       x1="0"
       y1="0"
       x2="1"
       y2="0"
       id="linearGradient3364"
       gradientUnits="userSpaceOnUse"
       gradientTransform="matrix(-9.76956,-24.1791,-20.5192,11.5121,209.943,523.219)"
       spreadMethod="pad"><stop
         id="stop3366"
         style="stop-color:#fbc008;stop-opacity:1"
         offset="0" /><stop
         id="stop3368"
         style="stop-color:#f68c11;stop-opacity:1"
         offset="0.53374201" /><stop
         id="stop3370"
         style="stop-color:#f68c11;stop-opacity:1"
         offset="1" /></linearGradient><clipPath
       id="clipPath3378"><path
         d="m 2351.2,5121.98 c 1.54,61.11 -24.55,121.05 -113.89,134.93 -57.51,8.94 -11.14,-27.98 -11.14,-27.98 0,0 77.05,-39.42 74.74,-106.61 -2.3,-67.2 -75.05,-106.96 -75.05,-106.96 0,0 -46.37,-36.92 11.15,-27.98 86.58,13.46 112.65,73.48 114.19,134.6 z"
         id="path3380" /></clipPath><linearGradient
       x1="0"
       y1="0"
       x2="1"
       y2="0"
       id="linearGradient3382"
       gradientUnits="userSpaceOnUse"
       gradientTransform="matrix(-9.76956,-24.1791,-20.5192,11.5121,230.438,523.22)"
       spreadMethod="pad"><stop
         id="stop3384"
         style="stop-color:#fbc008;stop-opacity:1"
         offset="0" /><stop
         id="stop3386"
         style="stop-color:#f68c11;stop-opacity:1"
         offset="0.53374201" /><stop
         id="stop3388"
         style="stop-color:#f68c11;stop-opacity:1"
         offset="1" /></linearGradient><clipPath
       id="clipPath3396"><path
         d="m 6390.16,2140 c -570.08,0 -1032.2,31.48 -1032.2,70.31 0,15.18 70.66,29.24 190.78,40.73 4.2,-5.18 8.72,-10.08 13.53,-14.69 29.55,-28.33 70.31,-45.75 115.05,-45.74 l 943.94,0 5.3,0.71 c 76.91,21.08 145.55,49.23 206.71,82.5 348.34,-11.29 589.08,-35.49 589.08,-63.51 0,-38.83 -462.13,-70.31 -1032.19,-70.31"
         id="path3398" /></clipPath><clipPath
       id="clipPath3408"><path
         d="m 0,0 0,5667 7437,0 L 7437,0 0,0 z"
         id="path3410" /></clipPath><clipPath
       id="clipPath3418"><path
         d="m 5601.32,2255.65 c -3.99,2.98 -7.77,6.19 -11.34,9.61 -22.24,21.36 -35.73,50.38 -35.75,82.55 l 0,906.52 c 35.17,104.29 93.33,225.27 188.84,332.17 24.03,26.89 50.4,52.9 79.39,77.56 14.07,-217.28 1080.02,-1075.6 1212.45,-1181.44 -72.9,-80.45 -166.52,-153.24 -287.54,-206.34 -111.32,2.8 -231.64,4.33 -357.21,4.33 -316.39,0 -599.5,-9.69 -788.84,-24.96"
         id="path3420" /></clipPath><clipPath
       id="clipPath3430"><path
         d="m 6618.54,2230.65 -941.22,0 c -28.8,0 -55.13,9.37 -76,25 189.34,15.27 472.45,24.96 788.84,24.96 125.57,0 245.89,-1.53 357.21,-4.33 -39.9,-17.5 -82.74,-32.85 -128.83,-45.63"
         id="path3432" /></clipPath><clipPath
       id="clipPath3442"><path
         d="m 6621.26,2210.63 -943.94,0 c -79.04,0 -143.11,61.41 -143.11,137.18 l 0,909.79 c 71.39,213.68 237.8,499.23 623.84,599.21 l 950.41,0 0,-9.87 c -3.73,0.27 -7.49,0.42 -11.28,0.42 l -950.41,0 c -124.57,-32.26 -226.27,-83.86 -309.29,-146.12 -11.33,-8.49 -16.06,-21.07 -15.02,-37.18 -28.99,-24.66 -55.36,-50.67 -79.39,-77.56 -95.51,-106.9 -153.67,-227.88 -188.84,-332.17 l 0,-906.52 c 0.02,-32.17 13.51,-61.19 35.75,-82.55 3.57,-3.42 7.35,-6.63 11.34,-9.61 20.87,-15.63 47.2,-25 76,-25 l 941.22,0 c 46.09,12.78 88.93,28.13 128.83,45.63 121.02,53.1 214.64,125.89 287.54,206.34 8.78,-7.02 13.45,-10.72 13.45,-10.72 32.11,39.18 56.82,68.73 76.05,91.76 -101.52,-147.46 -259.02,-286.05 -503.15,-353.03 m 590.69,508.93 c 6.07,21.78 14.61,50.64 28.34,91.02 l 0,899.6 c 0,72.12 -58.07,131.24 -131.83,136.76 l 0,9.87 c 79.03,0 143.11,-61.43 143.11,-137.19 l 0,-899.59 c -10.95,-32.2 -24.02,-65.97 -39.62,-100.47 m 39.62,100.47 0,0"
         id="path3444" /></clipPath><clipPath
       id="clipPath3454"><path
         d="m 0,0 0,5667 7437,0 L 7437,0 0,0 z"
         id="path3456" /></clipPath><clipPath
       id="clipPath3466"><path
         d="m 7124.41,2563.66 c 35.64,51.78 64.37,104.64 87.54,155.9 -21.06,-75.58 -12.39,-65.89 -87.54,-155.9"
         id="path3468" /></clipPath><clipPath
       id="clipPath3478"><path
         d="m 7034.91,2482.62 c -132.43,105.84 -1198.38,964.16 -1212.45,1181.44 86.91,73.96 197.26,135.81 338.15,172.73 l 947.85,0 0,10.15 0,0 0,-10.15 c 34.29,0 65.08,-13.3 87.34,-34.62 22.24,-21.36 35.73,-50.39 35.75,-82.55 l 0,-896.26 c -36.24,-105.61 -95.63,-227.59 -192.33,-335.96 -1.42,-1.59 -2.87,-3.19 -4.31,-4.78"
         id="path3480" /></clipPath><clipPath
       id="clipPath3490"><path
         d="m 7048.36,2471.9 c 0,0 -4.67,3.7 -13.45,10.72 1.44,1.59 2.89,3.19 4.31,4.78 96.7,108.37 156.09,230.35 192.33,335.96 l 0,896.26 c -0.02,32.16 -13.51,61.19 -35.75,82.55 -22.26,21.32 -53.05,34.62 -87.34,34.62 l 0,10.15 c 73.76,-5.52 131.83,-64.64 131.83,-136.76 l 0,-899.6 c -13.73,-40.38 -22.27,-69.24 -28.34,-91.02 -23.17,-51.26 -51.9,-104.12 -87.54,-155.9 -19.23,-23.03 -43.94,-52.58 -76.05,-91.76 m -1225.9,1192.16 c -1.04,16.11 3.69,28.69 15.02,37.18 83.02,62.26 184.72,113.86 309.29,146.12 l 950.41,0 c 3.79,0 7.55,-0.15 11.28,-0.42 l 0,-10.15 -947.85,0 c -140.89,-36.92 -251.24,-98.77 -338.15,-172.73"
         id="path3492" /></clipPath><clipPath
       id="clipPath3502"><path
         d="m 0,0 0,5667 7437,0 L 7437,0 0,0 z"
         id="path3504" /></clipPath></defs><g
     transform="matrix(1.25,0,0,-1.25,-153.38986,636.91634)"
     id="g3012"><g
       transform="scale(0.1,0.1)"
       id="g3014"><g
         transform="translate(-249.54715,1434.8961)"
         id="g3132"><g
           transform="translate(-925.404,1819.6146)"
           clip-path="url(#clipPath3136)"
           id="g3134"><path
             d="m 2697.73,1319 118.28,-406.781 c 21.49,-75.258 35.84,-143.348 50.17,-213.25 l 5.37,0 c 14.34,71.691 28.68,137.992 48.39,213.25 l 112.89,406.781 286.72,0 -326.14,-876.27 -272.38,0 -318.96,876.27 295.66,0"
             id="path3144"
             style="fill:#656263;fill-opacity:1;fill-rule:nonzero;stroke:none" /><path
             d="m 3444.97,442.73 272.383,0 0,876.27 -272.383,0 0,-876.27 z"
             id="path3146"
             style="fill:#656263;fill-opacity:1;fill-rule:nonzero;stroke:none" /><path
             d="m 4208.32,819.039 c 0,-21.5 1.79,-39.418 5.37,-57.348 17.93,-73.472 80.64,-129.019 159.49,-129.019 118.27,0 188.16,98.558 188.16,247.289 0,139.779 -62.73,245.499 -184.57,245.499 -77.05,0 -145.15,-57.35 -163.08,-137.98 -3.58,-14.328 -5.37,-32.25 -5.37,-48.378 l 0,-120.063 z m -272.37,206.071 c 0,114.68 -3.6,211.45 -7.18,293.89 l 236.55,0 12.53,-121.87 3.59,0 c 64.51,91.41 164.86,141.57 292.09,141.57 191.73,0 363.76,-166.65 363.76,-446.2 0,-318.961 -202.49,-469.48 -397.81,-469.48 -105.72,0 -188.15,43 -227.58,100.339 l -3.58,0 0,-435.4371 -272.37,0 0,937.1881"
             id="path3148"
             style="fill:#656263;fill-opacity:1;fill-rule:nonzero;stroke:none" /><path
             d="m 5473.42,856.66 c -143.36,0 -254.46,-34.039 -254.46,-137.98 0,-69.879 46.59,-103.93 107.51,-103.93 66.31,0 123.65,44.801 141.57,100.352 3.58,14.347 5.38,30.468 5.38,46.589 l 0,94.969 z m 263.42,-202.48 c 0,-82.438 3.58,-163.071 14.33,-211.45 l -245.5,0 -16.12,87.801 -5.38,0 C 5426.84,460.648 5337.23,423.02 5233.29,423.02 c -177.4,0 -283.12,129.019 -283.12,268.789 0,227.582 204.28,335.101 514.29,335.101 l 0,10.75 c 0,48.38 -25.09,114.68 -159.48,114.68 -89.6,0 -184.58,-30.46 -241.92,-66.3 l -50.18,175.61 c 60.93,34.05 181,78.85 340.48,78.85 292.08,0 383.48,-172.03 383.48,-379.898 l 0,-306.422"
             id="path3150"
             style="fill:#656263;fill-opacity:1;fill-rule:nonzero;stroke:none" /><path
             d="m 6419.56,856.66 c -143.35,0 -254.45,-34.039 -254.45,-137.98 0,-69.879 46.59,-103.93 107.52,-103.93 66.3,0 123.63,44.801 141.56,100.352 3.58,14.347 5.37,30.468 5.37,46.589 l 0,94.969 z m 263.43,-202.48 c 0,-82.438 3.58,-163.071 14.32,-211.45 l -245.48,0 -16.15,87.801 -5.37,0 C 6372.98,460.648 6283.38,423.02 6179.44,423.02 c -177.4,0 -283.12,129.019 -283.12,268.789 0,227.582 204.28,335.101 514.29,335.101 l 0,10.75 c 0,48.38 -25.09,114.68 -159.49,114.68 -89.59,0 -184.57,-30.46 -241.92,-66.3 l -50.17,175.61 c 60.93,34.05 180.99,78.85 340.47,78.85 292.09,0 383.49,-172.03 383.49,-379.898 l 0,-306.422"
             id="path3152"
             style="fill:#656263;fill-opacity:1;fill-rule:nonzero;stroke:none" /><path
             d="m 6899.8,1030.48 c 0,129.02 -1.78,213.24 -7.16,288.52 l 232.95,0 10.75,-161.29 7.18,0 c 44.79,129.03 150.51,182.79 236.52,182.79 25.1,0 37.64,-1.8 57.35,-5.38 l 0,-256.25 c -21.51,3.58 -43.01,7.17 -73.47,7.17 -100.35,0 -168.45,-53.76 -186.36,-137.981 -3.59,-17.918 -5.38,-39.43 -5.38,-60.93 l 0,-444.399 -272.38,0 0,587.75"
             id="path3154"
             style="fill:#656263;fill-opacity:1;fill-rule:nonzero;stroke:none" /></g></g><g
         transform="translate(-1174.9511,3254.5107)"
         id="g3156"><g
           clip-path="url(#clipPath3160)"
           id="g3158"><path
             d="m 3744.52,1679.81 c 0,-88.94 -72.1,-161.03 -161.02,-161.03 -88.93,0 -161.03,72.09 -161.03,161.03 0,88.92 72.1,161.01 161.03,161.01 88.92,0 161.02,-72.09 161.02,-161.01"
             id="path3172"
             style="fill:#ff9000;fill-opacity:1;fill-rule:nonzero;stroke:none" /></g></g><g
         transform="translate(-1174.9511,3254.5107)"
         id="g3174"><g
           clip-path="url(#clipPath3178)"
           id="g3176"><path
             d="m 3983.93,1676.38 c 1.81,71.88 -28.9,142.41 -133.99,158.75 -67.67,10.51 -13.12,-32.91 -13.12,-32.91 0,0 90.65,-46.39 87.94,-125.46 -2.72,-79.05 -88.3,-125.83 -88.3,-125.83 0,0 -54.57,-43.44 13.11,-32.93 101.87,15.84 132.53,86.47 134.36,158.38"
             id="path3190"
             style="fill:#ff9000;fill-opacity:1;fill-rule:nonzero;stroke:none" /></g></g><g
         transform="translate(-1174.9511,3254.5107)"
         id="g3192"><g
           clip-path="url(#clipPath3196)"
           id="g3194"><path
             d="m 4238.49,1676.38 c 1.82,71.88 -28.88,142.41 -133.99,158.75 -67.67,10.51 -13.11,-32.91 -13.11,-32.91 0,0 90.65,-46.39 87.93,-125.46 -2.71,-79.05 -88.29,-125.83 -88.29,-125.83 0,0 -54.57,-43.44 13.11,-32.93 101.87,15.84 132.53,86.47 134.35,158.38"
             id="path3208"
             style="fill:#ff9000;fill-opacity:1;fill-rule:nonzero;stroke:none" /></g></g><g
         transform="translate(-1174.9511,3254.5107)"
         id="g3210"><g
           clip-path="url(#clipPath3214)"
           id="g3212"><path
             d="m 4486.9,1676.38 c 1.82,71.88 -28.87,142.41 -133.99,158.75 -67.68,10.51 -13.11,-32.91 -13.11,-32.91 0,0 90.66,-46.39 87.93,-125.46 -2.71,-79.05 -88.29,-125.83 -88.29,-125.83 0,0 -54.57,-43.44 13.11,-32.93 101.87,15.84 132.55,86.47 134.35,158.38"
             id="path3226"
             style="fill:#ff9000;fill-opacity:1;fill-rule:nonzero;stroke:none" /></g></g><g
         transform="translate(-1174.9511,3254.5107)"
         id="g3228"><g
           clip-path="url(#clipPath3232)"
           id="g3230"><path
             d="m 4697.1,1676.38 c 1.81,71.88 -28.89,142.41 -134,158.75 -67.67,10.51 -13.11,-32.91 -13.11,-32.91 0,0 90.65,-46.39 87.94,-125.46 -2.72,-79.05 -88.3,-125.83 -88.3,-125.83 0,0 -54.56,-43.44 13.1,-32.93 101.88,15.84 132.55,86.47 134.37,158.38"
             id="path3244"
             style="fill:#ff9000;fill-opacity:1;fill-rule:nonzero;stroke:none" /></g></g><g
         transform="translate(-1174.9511,3254.5107)"
         id="g3246"><g
           clip-path="url(#clipPath3250)"
           id="g3248"><path
             d="m 4938.22,1676.38 c 1.82,71.88 -28.88,142.41 -133.99,158.75 -67.68,10.51 -13.11,-32.91 -13.11,-32.91 0,0 90.66,-46.39 87.93,-125.46 -2.71,-79.05 -88.3,-125.83 -88.3,-125.83 0,0 -54.55,-43.44 13.12,-32.93 101.87,15.84 132.54,86.47 134.35,158.38"
             id="path3262"
             style="fill:#ff9000;fill-opacity:1;fill-rule:nonzero;stroke:none" /></g></g><g
         transform="translate(-925.404,1819.6146)"
         id="g3462"><g
           clip-path="url(#clipPath3466)"
           id="g3464"><g
             transform="matrix(102.2,0,0,169.2,7117.9,2555.9)"
             id="g3470" /></g></g></g></g></svg>